{
  "accessors": [
    {
      "bufferView": 2,
      "componentType": 5126,
      "count": 2768,
      "max": [
        0.866100013256073,
        3.6988000869750977,
        0.6725999712944031
      ],
      "min": [
        -0.866100013256073,
        -5.23330020904541,
        -1.059499979019165
      ],
      "type": "VEC3"
    },
    {
      "bufferView": 2,
      "byteOffset": 33216,
      "componentType": 5126,
      "count": 2768,
      "max": [
        0.9990665316581726,
        1.0,
        0.9990700483322144
      ],
      "min": [
        -0.9990691542625427,
        -1.0,
        -0.9990701079368591
      ],
      "type": "VEC3"
    },
    {
      "bufferView": 3,
      "componentType": 5126,
      "count": 2768,
      "max": [
        0.9999836683273315,
        1.0,
        0.9999996423721313,
        1.0
      ],
      "min": [
        -0.9987053275108337,
        -1.0,
        -0.9987176060676575,
        1.0
      ],
      "type": "VEC4"
    },
    {
      "bufferView": 1,
      "componentType": 5126,
      "count": 2768,
      "max": [
        0.9940000176429749,
        -0.0035000001080334187
      ],
      "min": [
        0.0015999999595806003,
        -0.9922000169754028
      ],
      "type": "VEC2"
    },
    {
      "bufferView": 0,
      "componentType": 5125,
      "count": 7830,
      "type": "SCALAR"
    }
  ],
  "asset": {
    "extras": {
      "author": "KojfDiscord (https://sketchfab.com/KojfDiscord)",
      "license": "CC-BY-4.0 (http://creativecommons.org/licenses/by/4.0/)",
      "source": "https://sketchfab.com/3d-models/missiles-agm-88-harm-warno-d2dbeed05dd443a6a11714e91c640283",
      "title": "Missiles AGM 88 Harm (WARNO)"
    },
    "generator": "Sketchfab-17.2.0",
    "version": "2.0"
  },
  "bufferViews": [
    {
      "buffer": 0,
      "byteLength": 31320,
      "name": "floatBufferViews",
      "target": 34963
    },
    {
      "buffer": 0,
      "byteLength": 22144,
      "byteOffset": 31320,
      "byteStride": 8,
      "name": "floatBufferViews",
      "target": 34962
    },
    {
      "buffer": 0,
      "byteLength": 66432,
      "byteOffset": 53464,
      "byteStride": 12,
      "name": "floatBufferViews",
      "target": 34962
    },
    {
      "buffer": 0,
      "byteLength": 44288,
      "byteOffset": 119896,
      "byteStride": 16,
      "name": "floatBufferViews",
      "target": 34962
    }
  ],
  "buffers": [
    {
      "byteLength": 164184,
      "uri": "scene.bin"
    }
  ],
  "images": [
    {
      "uri": "textures/4e6ed2fe-0927-428e-ac0e-3d1870bc2941_baseColor.jpeg"
    },
    {
      "uri": "textures/4e6ed2fe-0927-428e-ac0e-3d1870bc2941_normal.png"
    }
  ],
  "materials": [
    {
      "doubleSided": true,
      "name": "4e6ed2fe-0927-428e-ac0e-3d1870bc2941",
      "normalTexture": {
        "index": 1
      },
      "pbrMetallicRoughness": {
        "baseColorTexture": {
          "index": 0
        },
        "metallicFactor": 0.0
      }
    }
  ],
  "meshes": [
    {
      "name": "Object_0",
      "primitives": [
        {
          "attributes": {
            "NORMAL": 1,
            "POSITION": 0,
            "TANGENT": 2,
            "TEXCOORD_0": 3
          },
          "indices": 4,
          "material": 0,
          "mode": 4
        }
      ]
    }
  ],
  "nodes": [
    {
      "children": [
        1
      ],
      "matrix": [
        1.0,
        0.0,
        0.0,
        0.0,
        0.0,
        2.220446049250313e-16,
        -1.0,
        0.0,
        0.0,
        1.0,
        2.220446049250313e-16,
        0.0,
        0.0,
        0.0,
        0.0,
        1.0
      ],
      "name": "Sketchfab_model"
    },
    {
      "children": [
        2
      ],
      "name": "missiles_agm_88_harm.obj.cleaner.materialmerger.gles"
    },
    {
      "mesh": 0,
      "name": "Object_2"
    }
  ],
  "samplers": [
    {
      "magFilter": 9729,
      "minFilter": 9987,
      "wrapS": 10497,
      "wrapT": 10497
    }
  ],
  "scene": 0,
  "scenes": [
    {
      "name": "Sketchfab_Scene",
      "nodes": [
        0
      ]
    }
  ],
  "textures": [
    {
      "sampler": 0,
      "source": 0
    },
    {
      "sampler": 0,
      "source": 1
    }
  ]
}
