{
  "accessors": [
    {
      "bufferView": 2,
      "componentType": 5126,
      "count": 108,
      "max": [
        0.15431135892868042,
        1.1568621397018433,
        0.1781833916902542
      ],
      "min": [
        -0.15431135892868042,
        -0.8006516695022583,
        -0.1781833916902542
      ],
      "type": "VEC3"
    },
    {
      "bufferView": 2,
      "byteOffset": 1296,
      "componentType": 5126,
      "count": 108,
      "max": [
        1.0,
        1.0,
        0.866019070148468
      ],
      "min": [
        -1.0,
        -1.0,
        -0.866019070148468
      ],
      "type": "VEC3"
    },
    {
      "bufferView": 1,
      "componentType": 5126,
      "count": 108,
      "max": [
        1.0,
        0.9900000095367432
      ],
      "min": [
        -8.940696716308594e-08,
        0.0
      ],
      "type": "VEC2"
    },
    {
      "bufferView": 0,
      "componentType": 5125,
      "count": 168,
      "type": "SCALAR"
    },
    {
      "bufferView": 2,
      "byteOffset": 2592,
      "componentType": 5126,
      "count": 48,
      "max": [
        0.11794944107532501,
        1.1568621397018433,
        0.1361962854862213
      ],
      "min": [
        -0.11794950813055038,
        0.8581540584564209,
        -0.1361963152885437
      ],
      "type": "VEC3"
    },
    {
      "bufferView": 2,
      "byteOffset": 3168,
      "componentType": 5126,
      "count": 48,
      "max": [
        0.9911834001541138,
        0.13249824941158295,
        0.8583887219429016
      ],
      "min": [
        -0.9911834001541138,
        0.13249778747558594,
        -0.8583887219429016
      ],
      "type": "VEC3"
    },
    {
      "bufferView": 1,
      "byteOffset": 864,
      "componentType": 5126,
      "count": 48,
      "max": [
        1.0,
        1.1920928955078125e-07
      ],
      "min": [
        -8.940696716308594e-08,
        0.0
      ],
      "type": "VEC2"
    },
    {
      "bufferView": 0,
      "byteOffset": 672,
      "componentType": 5125,
      "count": 72,
      "type": "SCALAR"
    },
    {
      "bufferView": 2,
      "byteOffset": 3744,
      "componentType": 5126,
      "count": 36,
      "max": [
        0.12383206188678741,
        -0.8006516695022583,
        0.1429888904094696
      ],
      "min": [
        -0.12383198738098145,
        -1.6675000190734863,
        -0.14298886060714722
      ],
      "type": "VEC3"
    },
    {
      "bufferView": 2,
      "byteOffset": 4176,
      "componentType": 5126,
      "count": 36,
      "max": [
        0.9947540760040283,
        1.0,
        0.8614766001701355
      ],
      "min": [
        -0.9947540760040283,
        -1.0,
        -0.8614766001701355
      ],
      "type": "VEC3"
    },
    {
      "bufferView": 1,
      "byteOffset": 1248,
      "componentType": 5126,
      "count": 36,
      "max": [
        0.9578461050987244,
        0.9900000095367432
      ],
      "min": [
        0.5421538949012756,
        0.5099999904632568
      ],
      "type": "VEC2"
    },
    {
      "bufferView": 0,
      "byteOffset": 960,
      "componentType": 5125,
      "count": 60,
      "type": "SCALAR"
    },
    {
      "bufferView": 2,
      "byteOffset": 4608,
      "componentType": 5126,
      "count": 16,
      "max": [
        0.25780025124549866,
        0.25780025124549866,
        -1.2223862409591675
      ],
      "min": [
        -0.25780025124549866,
        -0.25780025124549866,
        -1.5886834859848022
      ],
      "type": "VEC3"
    },
    {
      "bufferView": 2,
      "byteOffset": 4800,
      "componentType": 5126,
      "count": 16,
      "max": [
        1.0,
        1.0,
        0.0
      ],
      "min": [
        -1.0,
        -1.0,
        0.0
      ],
      "type": "VEC3"
    },
    {
      "bufferView": 1,
      "byteOffset": 1536,
      "componentType": 5126,
      "count": 16,
      "max": [
        1.0,
        1.0
      ],
      "min": [
        0.0,
        0.0
      ],
      "type": "VEC2"
    },
    {
      "bufferView": 0,
      "byteOffset": 1200,
      "componentType": 5125,
      "count": 24,
      "type": "SCALAR"
    },
    {
      "bufferView": 2,
      "byteOffset": 4992,
      "componentType": 5126,
      "count": 36,
      "max": [
        1.492639422416687,
        2.644749879837036,
        1.7235515117645264
      ],
      "min": [
        -1.492639422416687,
        -2.644747495651245,
        -1.7235515117645264
      ],
      "type": "VEC3"
    },
    {
      "bufferView": 2,
      "byteOffset": 5424,
      "componentType": 5126,
      "count": 36,
      "max": [
        1.0,
        1.0,
        0.866019070148468
      ],
      "min": [
        -1.0,
        -1.0,
        -0.866019070148468
      ],
      "type": "VEC3"
    },
    {
      "bufferView": 1,
      "byteOffset": 1664,
      "componentType": 5126,
      "count": 36,
      "max": [
        1.0,
        0.9900000095367432
      ],
      "min": [
        -8.940696716308594e-08,
        0.0
      ],
      "type": "VEC2"
    },
    {
      "bufferView": 0,
      "byteOffset": 1296,
      "componentType": 5125,
      "count": 60,
      "type": "SCALAR"
    }
  ],
  "asset": {
    "extras": {
      "author": "mrminimal (https://sketchfab.com/mrminimal)",
      "license": "CC-BY-4.0 (http://creativecommons.org/licenses/by/4.0/)",
      "source": "https://sketchfab.com/3d-models/mark-82-general-purpose-bomb-a5696711e97d48dfa6038919ca9c7a0d",
      "title": "Mark 82 General Purpose Bomb"
    },
    "generator": "Sketchfab-16.75.0",
    "version": "2.0"
  },
  "bufferViews": [
    {
      "buffer": 0,
      "byteLength": 1536,
      "name": "floatBufferViews",
      "target": 34963
    },
    {
      "buffer": 0,
      "byteLength": 1952,
      "byteOffset": 1536,
      "byteStride": 8,
      "name": "floatBufferViews",
      "target": 34962
    },
    {
      "buffer": 0,
      "byteLength": 5856,
      "byteOffset": 3488,
      "byteStride": 12,
      "name": "floatBufferViews",
      "target": 34962
    }
  ],
  "buffers": [
    {
      "byteLength": 9344,
      "uri": "scene.bin"
    }
  ],
  "materials": [
    {
      "doubleSided": true,
      "name": "material_0",
      "pbrMetallicRoughness": {
        "metallicFactor": 0.0,
        "roughnessFactor": 0.6
      }
    },
    {
      "doubleSided": true,
      "name": "BombBody",
      "pbrMetallicRoughness": {
        "baseColorFactor": [
          0.0338492,
          0.0396705,
          0.0,
          1.0
        ],
        "metallicFactor": 0.0,
        "roughnessFactor": 0.5
      }
    },
    {
      "doubleSided": true,
      "name": "OrdnanceStripe",
      "pbrMetallicRoughness": {
        "baseColorFactor": [
          0.8,
          0.37158,
          0.0,
          1.0
        ],
        "metallicFactor": 0.0,
        "roughnessFactor": 0.5
      }
    }
  ],
  "meshes": [
    {
      "name": "Object_0",
      "primitives": [
        {
          "attributes": {
            "NORMAL": 1,
            "POSITION": 0,
            "TEXCOORD_0": 2
          },
          "indices": 3,
          "material": 1,
          "mode": 4
        }
      ]
    },
    {
      "name": "Object_1",
      "primitives": [
        {
          "attributes": {
            "NORMAL": 5,
            "POSITION": 4,
            "TEXCOORD_0": 6
          },
          "indices": 7,
          "material": 2,
          "mode": 4
        }
      ]
    },
    {
      "name": "Object_2",
      "primitives": [
        {
          "attributes": {
            "NORMAL": 9,
            "POSITION": 8,
            "TEXCOORD_0": 10
          },
          "indices": 11,
          "material": 1,
          "mode": 4
        }
      ]
    },
    {
      "name": "Object_3",
      "primitives": [
        {
          "attributes": {
            "NORMAL": 13,
            "POSITION": 12,
            "TEXCOORD_0": 14
          },
          "indices": 15,
          "material": 1,
          "mode": 4
        }
      ]
    },
    {
      "name": "Object_4",
      "primitives": [
        {
          "attributes": {
            "NORMAL": 17,
            "POSITION": 16,
            "TEXCOORD_0": 18
          },
          "indices": 19,
          "material": 0,
          "mode": 4
        }
      ]
    }
  ],
  "nodes": [
    {
      "children": [
        1
      ],
      "matrix": [
        1.0,
        0.0,
        0.0,
        0.0,
        0.0,
        2.220446049250313e-16,
        -1.0,
        0.0,
        0.0,
        1.0,
        2.220446049250313e-16,
        0.0,
        0.0,
        0.0,
        0.0,
        1.0
      ],
      "name": "Sketchfab_model"
    },
    {
      "children": [
        2
      ],
      "name": "root"
    },
    {
      "children": [
        3,
        6,
        8,
        10
      ],
      "matrix": [
        1.0,
        0.0,
        0.0,
        0.0,
        0.0,
        2.220446049250313e-16,
        1.0,
        0.0,
        0.0,
        -1.0,
        2.220446049250313e-16,
        0.0,
        0.0,
        0.0,
        0.0,
        1.0
      ],
      "name": "GLTF_SceneRootNode"
    },
    {
      "children": [
        4,
        5
      ],
      "matrix": [
        0.7618823051452637,
        0.0,
        0.0,
        0.0,
        0.0,
        0.0,
        0.7618823051452637,
        0.0,
        0.0,
        -0.7618823051452637,
        0.0,
        0.0,
        0.0,
        -0.027503162622451782,
        0.1885717213153839,
        1.0
      ],
      "name": "ExplosiveBody_0"
    },
    {
      "mesh": 0,
      "name": "Object_4"
    },
    {
      "mesh": 1,
      "name": "Object_5"
    },
    {
      "children": [
        7
      ],
      "matrix": [
        0.7618823051452637,
        0.0,
        0.0,
        0.0,
        0.0,
        0.0,
        0.7618823051452637,
        0.0,
        0.0,
        -0.7618823051452637,
        0.0,
        0.0,
        0.0,
        -0.027503162622451782,
        0.1885717213153839,
        1.0
      ],
      "name": "Tail_1"
    },
    {
      "mesh": 2,
      "name": "Object_7"
    },
    {
      "children": [
        9
      ],
      "matrix": [
        0.5387321635339555,
        -0.5387321253345526,
        0.0,
        0.0,
        0.5387321253345526,
        0.5387321635339555,
        0.0,
        0.0,
        0.0,
        -0.0,
        0.7618823051452637,
        0.0,
        0.0,
        -0.027503162622451782,
        0.1885717213153839,
        1.0
      ],
      "name": "Fins_2"
    },
    {
      "mesh": 3,
      "name": "Object_9"
    },
    {
      "children": [
        11
      ],
      "matrix": [
        0.02615000307559967,
        0.0,
        0.0,
        0.0,
        0.0,
        0.0,
        0.02615000307559967,
        0.0,
        0.0,
        -0.02615000307559967,
        0.0,
        0.0,
        0.0,
        -0.027503162622451782,
        1.0796959400177002,
        1.0
      ],
      "name": "Cylinder_3"
    },
    {
      "mesh": 4,
      "name": "Object_11"
    }
  ],
  "scene": 0,
  "scenes": [
    {
      "name": "Sketchfab_Scene",
      "nodes": [
        0
      ]
    }
  ]
}
