{
  "accessors": [
    {
      "bufferView": 2,
      "componentType": 5126,
      "count": 65532,
      "max": [
        0.9844782948493958,
        0.18639923632144928,
        0.21745100617408752
      ],
      "min": [
        -0.4996260106563568,
        -0.17567099630832672,
        -0.2183530032634735
      ],
      "type": "VEC3"
    },
    {
      "bufferView": 2,
      "byteOffset": 786384,
      "componentType": 5126,
      "count": 65532,
      "max": [
        0.9999992847442627,
        1.0,
        0.9999999403953552
      ],
      "min": [
        -0.9999999403953552,
        -1.0,
        -0.9999921321868896
      ],
      "type": "VEC3"
    },
    {
      "bufferView": 1,
      "componentType": 5126,
      "count": 65532,
      "max": [
        0.9999881386756897,
        0.9967136383056641
      ],
      "min": [
        0.00011578999692574143,
        0.0024514198303222656
      ],
      "type": "VEC2"
    },
    {
      "bufferView": 1,
      "byteOffset": 524256,
      "componentType": 5126,
      "count": 65532,
      "max": [
        0.9999881386756897,
        0.9967136383056641
      ],
      "min": [
        0.00011578999692574143,
        0.0024514198303222656
      ],
      "type": "VEC2"
    },
    {
      "bufferView": 1,
      "byteOffset": 1048512,
      "componentType": 5126,
      "count": 65532,
      "max": [
        0.9999881386756897,
        0.9967136383056641
      ],
      "min": [
        0.00011578999692574143,
        0.0024514198303222656
      ],
      "type": "VEC2"
    },
    {
      "bufferView": 0,
      "componentType": 5125,
      "count": 362322,
      "type": "SCALAR"
    },
    {
      "bufferView": 2,
      "byteOffset": 1572768,
      "componentType": 5126,
      "count": 65532,
      "max": [
        0.006266999989748001,
        0.1972920000553131,
        0.21633100509643555
      ],
      "min": [
        -0.9133080244064331,
        -0.17569899559020996,
        -0.21885299682617188
      ],
      "type": "VEC3"
    },
    {
      "bufferView": 2,
      "byteOffset": 2359152,
      "componentType": 5126,
      "count": 65532,
      "max": [
        1.0,
        1.0,
        0.9999960660934448
      ],
      "min": [
        -0.9999954104423523,
        -1.0,
        -0.9999997615814209
      ],
      "type": "VEC3"
    },
    {
      "bufferView": 1,
      "byteOffset": 1572768,
      "componentType": 5126,
      "count": 65532,
      "max": [
        0.9999022483825684,
        0.9985721111297607
      ],
      "min": [
        0.0016883499920368195,
        0.0021074414253234863
      ],
      "type": "VEC2"
    },
    {
      "bufferView": 1,
      "byteOffset": 2097024,
      "componentType": 5126,
      "count": 65532,
      "max": [
        0.9999022483825684,
        0.9985721111297607
      ],
      "min": [
        0.0016883499920368195,
        0.0021074414253234863
      ],
      "type": "VEC2"
    },
    {
      "bufferView": 1,
      "byteOffset": 2621280,
      "componentType": 5126,
      "count": 65532,
      "max": [
        0.9999022483825684,
        0.9985721111297607
      ],
      "min": [
        0.0016883499920368195,
        0.0021074414253234863
      ],
      "type": "VEC2"
    },
    {
      "bufferView": 0,
      "byteOffset": 1449288,
      "componentType": 5125,
      "count": 353715,
      "type": "SCALAR"
    },
    {
      "bufferView": 2,
      "byteOffset": 3145536,
      "componentType": 5126,
      "count": 65532,
      "max": [
        -0.2450920045375824,
        0.06491900235414505,
        0.21662400662899017
      ],
      "min": [
        -0.9964249730110168,
        -0.17562900483608246,
        -0.19707700610160828
      ],
      "type": "VEC3"
    },
    {
      "bufferView": 2,
      "byteOffset": 3931920,
      "componentType": 5126,
      "count": 65532,
      "max": [
        0.9999720454216003,
        0.9999977350234985,
        0.999983012676239
      ],
      "min": [
        -0.999953031539917,
        -1.0,
        -0.999987781047821
      ],
      "type": "VEC3"
    },
    {
      "bufferView": 1,
      "byteOffset": 3145536,
      "componentType": 5126,
      "count": 65532,
      "max": [
        0.9999694228172302,
        0.9999604225158691
      ],
      "min": [
        0.00012194999726489186,
        0.0019230842590332031
      ],
      "type": "VEC2"
    },
    {
      "bufferView": 1,
      "byteOffset": 3669792,
      "componentType": 5126,
      "count": 65532,
      "max": [
        0.9999694228172302,
        0.9999604225158691
      ],
      "min": [
        0.00012194999726489186,
        0.0019230842590332031
      ],
      "type": "VEC2"
    },
    {
      "bufferView": 1,
      "byteOffset": 4194048,
      "componentType": 5126,
      "count": 65532,
      "max": [
        0.9999694228172302,
        0.9999604225158691
      ],
      "min": [
        0.00012194999726489186,
        0.0019230842590332031
      ],
      "type": "VEC2"
    },
    {
      "bufferView": 0,
      "byteOffset": 2864148,
      "componentType": 5125,
      "count": 355098,
      "type": "SCALAR"
    },
    {
      "bufferView": 2,
      "byteOffset": 4718304,
      "componentType": 5126,
      "count": 65532,
      "max": [
        0.7510550022125244,
        0.48150700330734253,
        0.0531190000474453
      ],
      "min": [
        -0.42269501090049744,
        -0.17568600177764893,
        -0.19881300628185272
      ],
      "type": "VEC3"
    },
    {
      "bufferView": 2,
      "byteOffset": 5504688,
      "componentType": 5126,
      "count": 65532,
      "max": [
        1.0,
        1.0,
        1.0
      ],
      "min": [
        -0.999998927116394,
        -1.0,
        -1.0
      ],
      "type": "VEC3"
    },
    {
      "bufferView": 1,
      "byteOffset": 4718304,
      "componentType": 5126,
      "count": 65532,
      "max": [
        0.92369544506073,
        0.9954272508621216
      ],
      "min": [
        0.002486160025000572,
        0.0019120573997497559
      ],
      "type": "VEC2"
    },
    {
      "bufferView": 1,
      "byteOffset": 5242560,
      "componentType": 5126,
      "count": 65532,
      "max": [
        0.92369544506073,
        0.9954272508621216
      ],
      "min": [
        0.002486160025000572,
        0.0019120573997497559
      ],
      "type": "VEC2"
    },
    {
      "bufferView": 1,
      "byteOffset": 5766816,
      "componentType": 5126,
      "count": 65532,
      "max": [
        0.92369544506073,
        0.9954272508621216
      ],
      "min": [
        0.002486160025000572,
        0.0019120573997497559
      ],
      "type": "VEC2"
    },
    {
      "bufferView": 0,
      "byteOffset": 4284540,
      "componentType": 5125,
      "count": 357981,
      "type": "SCALAR"
    },
    {
      "bufferView": 2,
      "byteOffset": 6291072,
      "componentType": 5126,
      "count": 65532,
      "max": [
        0.7533940076828003,
        0.08833999931812286,
        0.18701599538326263
      ],
      "min": [
        0.49536600708961487,
        -0.17571300268173218,
        -0.1873829960823059
      ],
      "type": "VEC3"
    },
    {
      "bufferView": 2,
      "byteOffset": 7077456,
      "componentType": 5126,
      "count": 65532,
      "max": [
        1.0,
        1.0,
        0.999955952167511
      ],
      "min": [
        -0.9999983310699463,
        -1.0,
        -1.0
      ],
      "type": "VEC3"
    },
    {
      "bufferView": 1,
      "byteOffset": 6291072,
      "componentType": 5126,
      "count": 65532,
      "max": [
        0.7016239762306213,
        0.7792589664459229
      ],
      "min": [
        0.3397136330604553,
        0.20068961381912231
      ],
      "type": "VEC2"
    },
    {
      "bufferView": 1,
      "byteOffset": 6815328,
      "componentType": 5126,
      "count": 65532,
      "max": [
        0.7016239762306213,
        0.7792589664459229
      ],
      "min": [
        0.3397136330604553,
        0.20068961381912231
      ],
      "type": "VEC2"
    },
    {
      "bufferView": 1,
      "byteOffset": 7339584,
      "componentType": 5126,
      "count": 65532,
      "max": [
        0.7016239762306213,
        0.7792589664459229
      ],
      "min": [
        0.3397136330604553,
        0.20068961381912231
      ],
      "type": "VEC2"
    },
    {
      "bufferView": 0,
      "byteOffset": 5716464,
      "componentType": 5125,
      "count": 347730,
      "type": "SCALAR"
    },
    {
      "bufferView": 2,
      "byteOffset": 7863840,
      "componentType": 5126,
      "count": 65532,
      "max": [
        0.9983670115470886,
        0.08833300322294235,
        0.18639999628067017
      ],
      "min": [
        0.49570798873901367,
        -0.17562900483608246,
        -0.1550309956073761
      ],
      "type": "VEC3"
    },
    {
      "bufferView": 2,
      "byteOffset": 8650224,
      "componentType": 5126,
      "count": 65532,
      "max": [
        1.0,
        1.0,
        0.9999943375587463
      ],
      "min": [
        -0.9999960064888,
        -1.0,
        -0.9999970197677612
      ],
      "type": "VEC3"
    },
    {
      "bufferView": 1,
      "byteOffset": 7863840,
      "componentType": 5126,
      "count": 65532,
      "max": [
        0.8177832365036011,
        0.9729094505310059
      ],
      "min": [
        0.028988929465413094,
        0.38851213455200195
      ],
      "type": "VEC2"
    },
    {
      "bufferView": 1,
      "byteOffset": 8388096,
      "componentType": 5126,
      "count": 65532,
      "max": [
        0.8177832365036011,
        0.9729094505310059
      ],
      "min": [
        0.028988929465413094,
        0.38851213455200195
      ],
      "type": "VEC2"
    },
    {
      "bufferView": 1,
      "byteOffset": 8912352,
      "componentType": 5126,
      "count": 65532,
      "max": [
        0.8177832365036011,
        0.9729094505310059
      ],
      "min": [
        0.028988929465413094,
        0.38851213455200195
      ],
      "type": "VEC2"
    },
    {
      "bufferView": 0,
      "byteOffset": 7107384,
      "componentType": 5125,
      "count": 356799,
      "type": "SCALAR"
    },
    {
      "bufferView": 2,
      "byteOffset": 9436608,
      "componentType": 5126,
      "count": 65532,
      "max": [
        0.9938480257987976,
        0.08129499852657318,
        0.15384399890899658
      ],
      "min": [
        -0.25156301259994507,
        -0.17569999396800995,
        -0.21555200219154358
      ],
      "type": "VEC3"
    },
    {
      "bufferView": 2,
      "byteOffset": 10222992,
      "componentType": 5126,
      "count": 65532,
      "max": [
        0.999999463558197,
        1.0,
        0.9999995827674866
      ],
      "min": [
        -1.0,
        -1.0,
        -1.0
      ],
      "type": "VEC3"
    },
    {
      "bufferView": 1,
      "byteOffset": 9436608,
      "componentType": 5126,
      "count": 65532,
      "max": [
        0.9997181296348572,
        0.9999262690544128
      ],
      "min": [
        0.0034765899181365967,
        0.008747220039367676
      ],
      "type": "VEC2"
    },
    {
      "bufferView": 1,
      "byteOffset": 9960864,
      "componentType": 5126,
      "count": 65532,
      "max": [
        0.9997181296348572,
        0.9999262690544128
      ],
      "min": [
        0.0034765899181365967,
        0.008747220039367676
      ],
      "type": "VEC2"
    },
    {
      "bufferView": 1,
      "byteOffset": 10485120,
      "componentType": 5126,
      "count": 65532,
      "max": [
        0.9997181296348572,
        0.9999262690544128
      ],
      "min": [
        0.0034765899181365967,
        0.008747220039367676
      ],
      "type": "VEC2"
    },
    {
      "bufferView": 0,
      "byteOffset": 8534580,
      "componentType": 5125,
      "count": 358194,
      "type": "SCALAR"
    },
    {
      "bufferView": 2,
      "byteOffset": 11009376,
      "componentType": 5126,
      "count": 65532,
      "max": [
        0.25397199392318726,
        0.19348900020122528,
        0.1921599954366684
      ],
      "min": [
        -0.3289810121059418,
        -0.17566800117492676,
        -0.21528500318527222
      ],
      "type": "VEC3"
    },
    {
      "bufferView": 2,
      "byteOffset": 11795760,
      "componentType": 5126,
      "count": 65532,
      "max": [
        0.9999997615814209,
        1.0,
        0.9999979734420776
      ],
      "min": [
        -1.0,
        -1.0,
        -1.0
      ],
      "type": "VEC3"
    },
    {
      "bufferView": 1,
      "byteOffset": 11009376,
      "componentType": 5126,
      "count": 65532,
      "max": [
        0.9999814033508301,
        0.9990972876548767
      ],
      "min": [
        0.0008900800021365285,
        0.005101144313812256
      ],
      "type": "VEC2"
    },
    {
      "bufferView": 1,
      "byteOffset": 11533632,
      "componentType": 5126,
      "count": 65532,
      "max": [
        0.9999814033508301,
        0.9990972876548767
      ],
      "min": [
        0.0008900800021365285,
        0.005101144313812256
      ],
      "type": "VEC2"
    },
    {
      "bufferView": 1,
      "byteOffset": 12057888,
      "componentType": 5126,
      "count": 65532,
      "max": [
        0.9999814033508301,
        0.9990972876548767
      ],
      "min": [
        0.0008900800021365285,
        0.005101144313812256
      ],
      "type": "VEC2"
    },
    {
      "bufferView": 0,
      "byteOffset": 9967356,
      "componentType": 5125,
      "count": 342201,
      "type": "SCALAR"
    },
    {
      "bufferView": 2,
      "byteOffset": 12582144,
      "componentType": 5126,
      "count": 65532,
      "max": [
        0.03483600169420242,
        0.17426200211048126,
        0.17400799691677094
      ],
      "min": [
        -0.2506119906902313,
        -0.013079999946057796,
        -0.17408700287342072
      ],
      "type": "VEC3"
    },
    {
      "bufferView": 2,
      "byteOffset": 13368528,
      "componentType": 5126,
      "count": 65532,
      "max": [
        0.9999999403953552,
        1.0,
        0.9999998807907104
      ],
      "min": [
        -0.9999999403953552,
        -1.0,
        -1.0
      ],
      "type": "VEC3"
    },
    {
      "bufferView": 1,
      "byteOffset": 12582144,
      "componentType": 5126,
      "count": 65532,
      "max": [
        0.9994714856147766,
        0.9475494623184204
      ],
      "min": [
        0.0027109000366181135,
        0.009203135967254639
      ],
      "type": "VEC2"
    },
    {
      "bufferView": 1,
      "byteOffset": 13106400,
      "componentType": 5126,
      "count": 65532,
      "max": [
        0.9994714856147766,
        0.9475494623184204
      ],
      "min": [
        0.0027109000366181135,
        0.009203135967254639
      ],
      "type": "VEC2"
    },
    {
      "bufferView": 1,
      "byteOffset": 13630656,
      "componentType": 5126,
      "count": 65532,
      "max": [
        0.9994714856147766,
        0.9475494623184204
      ],
      "min": [
        0.0027109000366181135,
        0.009203135967254639
      ],
      "type": "VEC2"
    },
    {
      "bufferView": 0,
      "byteOffset": 11336160,
      "componentType": 5125,
      "count": 353490,
      "type": "SCALAR"
    },
    {
      "bufferView": 2,
      "byteOffset": 14154912,
      "componentType": 5126,
      "count": 65532,
      "max": [
        0.22107599675655365,
        0.3306579887866974,
        0.2054239958524704
      ],
      "min": [
        -0.09911199659109116,
        -0.04954399913549423,
        -0.17410999536514282
      ],
      "type": "VEC3"
    },
    {
      "bufferView": 2,
      "byteOffset": 14941296,
      "componentType": 5126,
      "count": 65532,
      "max": [
        1.0,
        1.0,
        1.0
      ],
      "min": [
        -0.9999996423721313,
        -0.9999997615814209,
        -0.9999998807907104
      ],
      "type": "VEC3"
    },
    {
      "bufferView": 1,
      "byteOffset": 14154912,
      "componentType": 5126,
      "count": 65532,
      "max": [
        0.9999127984046936,
        0.9478471875190735
      ],
      "min": [
        0.04894905164837837,
        0.025329768657684326
      ],
      "type": "VEC2"
    },
    {
      "bufferView": 1,
      "byteOffset": 14679168,
      "componentType": 5126,
      "count": 65532,
      "max": [
        0.9999127984046936,
        0.9478471875190735
      ],
      "min": [
        0.04894905164837837,
        0.025329768657684326
      ],
      "type": "VEC2"
    },
    {
      "bufferView": 1,
      "byteOffset": 15203424,
      "componentType": 5126,
      "count": 65532,
      "max": [
        0.9999127984046936,
        0.9478471875190735
      ],
      "min": [
        0.04894905164837837,
        0.025329768657684326
      ],
      "type": "VEC2"
    },
    {
      "bufferView": 0,
      "byteOffset": 12750120,
      "componentType": 5125,
      "count": 345570,
      "type": "SCALAR"
    },
    {
      "bufferView": 2,
      "byteOffset": 15727680,
      "componentType": 5126,
      "count": 65532,
      "max": [
        0.5142220258712769,
        0.07985199987888336,
        0.21348899602890015
      ],
      "min": [
        -0.13258500397205353,
        -0.17569200694561005,
        -0.20244500041007996
      ],
      "type": "VEC3"
    },
    {
      "bufferView": 2,
      "byteOffset": 16514064,
      "componentType": 5126,
      "count": 65532,
      "max": [
        0.9999998807907104,
        1.0,
        0.9999999403953552
      ],
      "min": [
        -0.9999999403953552,
        -1.0,
        -1.0
      ],
      "type": "VEC3"
    },
    {
      "bufferView": 1,
      "byteOffset": 15727680,
      "componentType": 5126,
      "count": 65532,
      "max": [
        0.9994262456893921,
        0.9918148517608643
      ],
      "min": [
        0.0024761799722909927,
        0.023720204830169678
      ],
      "type": "VEC2"
    },
    {
      "bufferView": 1,
      "byteOffset": 16251936,
      "componentType": 5126,
      "count": 65532,
      "max": [
        0.9994262456893921,
        0.9918148517608643
      ],
      "min": [
        0.0024761799722909927,
        0.023720204830169678
      ],
      "type": "VEC2"
    },
    {
      "bufferView": 1,
      "byteOffset": 16776192,
      "componentType": 5126,
      "count": 65532,
      "max": [
        0.9994262456893921,
        0.9918148517608643
      ],
      "min": [
        0.0024761799722909927,
        0.023720204830169678
      ],
      "type": "VEC2"
    },
    {
      "bufferView": 0,
      "byteOffset": 14132400,
      "componentType": 5125,
      "count": 356736,
      "type": "SCALAR"
    },
    {
      "bufferView": 2,
      "byteOffset": 17300448,
      "componentType": 5126,
      "count": 65532,
      "max": [
        0.5025449991226196,
        0.08281899988651276,
        0.21515600383281708
      ],
      "min": [
        -0.0038870000280439854,
        -0.17567700147628784,
        -0.20861299335956573
      ],
      "type": "VEC3"
    },
    {
      "bufferView": 2,
      "byteOffset": 18086832,
      "componentType": 5126,
      "count": 65532,
      "max": [
        0.9999991655349731,
        1.0,
        0.9999993443489075
      ],
      "min": [
        -0.9999999403953552,
        -1.0,
        -1.0
      ],
      "type": "VEC3"
    },
    {
      "bufferView": 1,
      "byteOffset": 17300448,
      "componentType": 5126,
      "count": 65532,
      "max": [
        0.9904715418815613,
        0.922354519367218
      ],
      "min": [
        0.043286170810461044,
        0.1727105975151062
      ],
      "type": "VEC2"
    },
    {
      "bufferView": 1,
      "byteOffset": 17824704,
      "componentType": 5126,
      "count": 65532,
      "max": [
        0.9904715418815613,
        0.922354519367218
      ],
      "min": [
        0.043286170810461044,
        0.1727105975151062
      ],
      "type": "VEC2"
    },
    {
      "bufferView": 1,
      "byteOffset": 18348960,
      "componentType": 5126,
      "count": 65532,
      "max": [
        0.9904715418815613,
        0.922354519367218
      ],
      "min": [
        0.043286170810461044,
        0.1727105975151062
      ],
      "type": "VEC2"
    },
    {
      "bufferView": 0,
      "byteOffset": 15559344,
      "componentType": 5125,
      "count": 357783,
      "type": "SCALAR"
    },
    {
      "bufferView": 2,
      "byteOffset": 18873216,
      "componentType": 5126,
      "count": 65533,
      "max": [
        0.504597008228302,
        0.0841279998421669,
        0.21499399840831757
      ],
      "min": [
        -0.0008319999906234443,
        -0.17564499378204346,
        -0.2080720067024231
      ],
      "type": "VEC3"
    },
    {
      "bufferView": 2,
      "byteOffset": 19659612,
      "componentType": 5126,
      "count": 65533,
      "max": [
        0.9999994039535522,
        1.0,
        1.0
      ],
      "min": [
        -0.9999998211860657,
        -1.0,
        -1.0
      ],
      "type": "VEC3"
    },
    {
      "bufferView": 1,
      "byteOffset": 18873216,
      "componentType": 5126,
      "count": 65533,
      "max": [
        0.9894252419471741,
        0.9876202344894409
      ],
      "min": [
        0.020377760753035545,
        0.15110188722610474
      ],
      "type": "VEC2"
    },
    {
      "bufferView": 1,
      "byteOffset": 19397480,
      "componentType": 5126,
      "count": 65533,
      "max": [
        0.9894252419471741,
        0.9876202344894409
      ],
      "min": [
        0.020377760753035545,
        0.15110188722610474
      ],
      "type": "VEC2"
    },
    {
      "bufferView": 1,
      "byteOffset": 19921744,
      "componentType": 5126,
      "count": 65533,
      "max": [
        0.9894252419471741,
        0.9876202344894409
      ],
      "min": [
        0.020377760753035545,
        0.15110188722610474
      ],
      "type": "VEC2"
    },
    {
      "bufferView": 0,
      "byteOffset": 16990476,
      "componentType": 5125,
      "count": 322320,
      "type": "SCALAR"
    },
    {
      "bufferView": 2,
      "byteOffset": 20446008,
      "componentType": 5126,
      "count": 65532,
      "max": [
        0.5040720105171204,
        0.20564399659633636,
        0.18861499428749084
      ],
      "min": [
        -0.7492930293083191,
        -0.1756249964237213,
        -0.19991299510002136
      ],
      "type": "VEC3"
    },
    {
      "bufferView": 2,
      "byteOffset": 21232392,
      "componentType": 5126,
      "count": 65532,
      "max": [
        0.9999986290931702,
        1.0,
        0.9999989867210388
      ],
      "min": [
        -1.0,
        -1.0,
        -0.9999237656593323
      ],
      "type": "VEC3"
    },
    {
      "bufferView": 1,
      "byteOffset": 20446008,
      "componentType": 5126,
      "count": 65532,
      "max": [
        0.999982476234436,
        0.9982376098632813
      ],
      "min": [
        0.0024953100364655256,
        0.0105210542678833
      ],
      "type": "VEC2"
    },
    {
      "bufferView": 1,
      "byteOffset": 20970264,
      "componentType": 5126,
      "count": 65532,
      "max": [
        0.999982476234436,
        0.9982376098632813
      ],
      "min": [
        0.0024953100364655256,
        0.0105210542678833
      ],
      "type": "VEC2"
    },
    {
      "bufferView": 1,
      "byteOffset": 21494520,
      "componentType": 5126,
      "count": 65532,
      "max": [
        0.999982476234436,
        0.9982376098632813
      ],
      "min": [
        0.0024953100364655256,
        0.0105210542678833
      ],
      "type": "VEC2"
    },
    {
      "bufferView": 0,
      "byteOffset": 18279756,
      "componentType": 5125,
      "count": 344274,
      "type": "SCALAR"
    },
    {
      "bufferView": 2,
      "byteOffset": 22018776,
      "componentType": 5126,
      "count": 65532,
      "max": [
        -0.481361985206604,
        0.20533999800682068,
        0.18798400461673737
      ],
      "min": [
        -0.7513790130615234,
        -0.17151199281215668,
        -0.19059400260448456
      ],
      "type": "VEC3"
    },
    {
      "bufferView": 2,
      "byteOffset": 22805160,
      "componentType": 5126,
      "count": 65532,
      "max": [
        0.9999865293502808,
        0.9999986290931702,
        0.9999887347221375
      ],
      "min": [
        -0.999999463558197,
        -0.9999911785125732,
        -0.999995231628418
      ],
      "type": "VEC3"
    },
    {
      "bufferView": 1,
      "byteOffset": 22018776,
      "componentType": 5126,
      "count": 65532,
      "max": [
        0.9999805092811584,
        0.999882161617279
      ],
      "min": [
        0.0022013999987393618,
        0.0030100345611572266
      ],
      "type": "VEC2"
    },
    {
      "bufferView": 1,
      "byteOffset": 22543032,
      "componentType": 5126,
      "count": 65532,
      "max": [
        0.9999805092811584,
        0.999882161617279
      ],
      "min": [
        0.0022013999987393618,
        0.0030100345611572266
      ],
      "type": "VEC2"
    },
    {
      "bufferView": 1,
      "byteOffset": 23067288,
      "componentType": 5126,
      "count": 65532,
      "max": [
        0.9999805092811584,
        0.999882161617279
      ],
      "min": [
        0.0022013999987393618,
        0.0030100345611572266
      ],
      "type": "VEC2"
    },
    {
      "bufferView": 0,
      "byteOffset": 19656852,
      "componentType": 5125,
      "count": 327147,
      "type": "SCALAR"
    },
    {
      "bufferView": 2,
      "byteOffset": 23591544,
      "componentType": 5126,
      "count": 65532,
      "max": [
        0.0029180001001805067,
        0.22664399445056915,
        0.20860299468040466
      ],
      "min": [
        -0.7487019896507263,
        -0.17138800024986267,
        -0.20489899814128876
      ],
      "type": "VEC3"
    },
    {
      "bufferView": 2,
      "byteOffset": 24377928,
      "componentType": 5126,
      "count": 65532,
      "max": [
        0.9999998807907104,
        0.9999999403953552,
        0.9999987483024597
      ],
      "min": [
        -1.0,
        -0.9999990463256836,
        -0.9999999403953552
      ],
      "type": "VEC3"
    },
    {
      "bufferView": 1,
      "byteOffset": 23591544,
      "componentType": 5126,
      "count": 65532,
      "max": [
        0.9999611973762512,
        0.9994763135910034
      ],
      "min": [
        0.004304919857531786,
        0.0019588470458984375
      ],
      "type": "VEC2"
    },
    {
      "bufferView": 1,
      "byteOffset": 24115800,
      "componentType": 5126,
      "count": 65532,
      "max": [
        0.9999611973762512,
        0.9994763135910034
      ],
      "min": [
        0.004304919857531786,
        0.0019588470458984375
      ],
      "type": "VEC2"
    },
    {
      "bufferView": 1,
      "byteOffset": 24640056,
      "componentType": 5126,
      "count": 65532,
      "max": [
        0.9999611973762512,
        0.9994763135910034
      ],
      "min": [
        0.004304919857531786,
        0.0019588470458984375
      ],
      "type": "VEC2"
    },
    {
      "bufferView": 0,
      "byteOffset": 20965440,
      "componentType": 5125,
      "count": 335808,
      "type": "SCALAR"
    },
    {
      "bufferView": 2,
      "byteOffset": 25164312,
      "componentType": 5126,
      "count": 65532,
      "max": [
        0.003868000116199255,
        0.22655700147151947,
        0.17932899296283722
      ],
      "min": [
        -0.49919700622558594,
        -0.014240999706089497,
        -0.20905199646949768
      ],
      "type": "VEC3"
    },
    {
      "bufferView": 2,
      "byteOffset": 25950696,
      "componentType": 5126,
      "count": 65532,
      "max": [
        1.0,
        1.0,
        1.0
      ],
      "min": [
        -0.9999998807907104,
        -1.0,
        -1.0
      ],
      "type": "VEC3"
    },
    {
      "bufferView": 1,
      "byteOffset": 25164312,
      "componentType": 5126,
      "count": 65532,
      "max": [
        0.9999683499336243,
        0.9999210834503174
      ],
      "min": [
        0.002469920087605715,
        0.0019698143005371094
      ],
      "type": "VEC2"
    },
    {
      "bufferView": 1,
      "byteOffset": 25688568,
      "componentType": 5126,
      "count": 65532,
      "max": [
        0.9999683499336243,
        0.9999210834503174
      ],
      "min": [
        0.002469920087605715,
        0.0019698143005371094
      ],
      "type": "VEC2"
    },
    {
      "bufferView": 1,
      "byteOffset": 26212824,
      "componentType": 5126,
      "count": 65532,
      "max": [
        0.9999683499336243,
        0.9999210834503174
      ],
      "min": [
        0.002469920087605715,
        0.0019698143005371094
      ],
      "type": "VEC2"
    },
    {
      "bufferView": 0,
      "byteOffset": 22308672,
      "componentType": 5125,
      "count": 344607,
      "type": "SCALAR"
    },
    {
      "bufferView": 2,
      "byteOffset": 26737080,
      "componentType": 5126,
      "count": 13187,
      "max": [
        0.0025500000920146704,
        0.15698300302028656,
        0.17927099764347076
      ],
      "min": [
        -0.25005799531936646,
        -0.012183000333607197,
        -0.004854999948292971
      ],
      "type": "VEC3"
    },
    {
      "bufferView": 2,
      "byteOffset": 26895324,
      "componentType": 5126,
      "count": 13187,
      "max": [
        1.0,
        1.0,
        0.9999999403953552
      ],
      "min": [
        -0.9998437762260437,
        -0.9999997615814209,
        -0.999990701675415
      ],
      "type": "VEC3"
    },
    {
      "bufferView": 1,
      "byteOffset": 26737080,
      "componentType": 5126,
      "count": 13187,
      "max": [
        0.9997000098228455,
        0.9878786206245422
      ],
      "min": [
        0.013620439916849136,
        0.011261403560638428
      ],
      "type": "VEC2"
    },
    {
      "bufferView": 1,
      "byteOffset": 26842576,
      "componentType": 5126,
      "count": 13187,
      "max": [
        0.9997000098228455,
        0.9878786206245422
      ],
      "min": [
        0.013620439916849136,
        0.011261403560638428
      ],
      "type": "VEC2"
    },
    {
      "bufferView": 1,
      "byteOffset": 26948072,
      "componentType": 5126,
      "count": 13187,
      "max": [
        0.9997000098228455,
        0.9878786206245422
      ],
      "min": [
        0.013620439916849136,
        0.011261403560638428
      ],
      "type": "VEC2"
    },
    {
      "bufferView": 0,
      "byteOffset": 23687100,
      "componentType": 5125,
      "count": 48813,
      "type": "SCALAR"
    }
  ],
  "asset": {
    "extras": {
      "author": "soysascha (https://sketchfab.com/soysascha)",
      "license": "CC-BY-4.0 (http://creativecommons.org/licenses/by/4.0/)",
      "source": "https://sketchfab.com/3d-models/ara-sarandi-d-13-realistic-3d-naval-ship-a70653ec7b06457e94252f5df9d8cb9c",
      "title": "ARA Sarandí (D-13) Realistic 3D Naval Ship"
    },
    "generator": "Sketchfab-17.17.0",
    "version": "2.0"
  },
  "bufferViews": [
    {
      "buffer": 0,
      "byteLength": 23882352,
      "name": "floatBufferViews",
      "target": 34963
    },
    {
      "buffer": 0,
      "byteLength": 27053568,
      "byteOffset": 23882352,
      "byteStride": 8,
      "name": "floatBufferViews",
      "target": 34962
    },
    {
      "buffer": 0,
      "byteLength": 27053568,
      "byteOffset": 50935920,
      "byteStride": 12,
      "name": "floatBufferViews",
      "target": 34962
    }
  ],
  "buffers": [
    {
      "byteLength": 77989488,
      "uri": "scene.bin"
    }
  ],
  "images": [
    {
      "uri": "textures/pbr_material_baseColor.png"
    },
    {
      "uri": "textures/pbr_material_metallicRoughness.png"
    }
  ],
  "materials": [
    {
      "name": "pbr_material",
      "pbrMetallicRoughness": {
        "baseColorTexture": {
          "index": 0
        },
        "metallicRoughnessTexture": {
          "index": 1,
          "texCoord": 1
        }
      }
    }
  ],
  "meshes": [
    {
      "name": "Object_0",
      "primitives": [
        {
          "attributes": {
            "NORMAL": 1,
            "POSITION": 0,
            "TEXCOORD_0": 2,
            "TEXCOORD_1": 3,
            "TEXCOORD_2": 4
          },
          "indices": 5,
          "material": 0,
          "mode": 4
        }
      ]
    },
    {
      "name": "Object_1",
      "primitives": [
        {
          "attributes": {
            "NORMAL": 7,
            "POSITION": 6,
            "TEXCOORD_0": 8,
            "TEXCOORD_1": 9,
            "TEXCOORD_2": 10
          },
          "indices": 11,
          "material": 0,
          "mode": 4
        }
      ]
    },
    {
      "name": "Object_2",
      "primitives": [
        {
          "attributes": {
            "NORMAL": 13,
            "POSITION": 12,
            "TEXCOORD_0": 14,
            "TEXCOORD_1": 15,
            "TEXCOORD_2": 16
          },
          "indices": 17,
          "material": 0,
          "mode": 4
        }
      ]
    },
    {
      "name": "Object_3",
      "primitives": [
        {
          "attributes": {
            "NORMAL": 19,
            "POSITION": 18,
            "TEXCOORD_0": 20,
            "TEXCOORD_1": 21,
            "TEXCOORD_2": 22
          },
          "indices": 23,
          "material": 0,
          "mode": 4
        }
      ]
    },
    {
      "name": "Object_4",
      "primitives": [
        {
          "attributes": {
            "NORMAL": 25,
            "POSITION": 24,
            "TEXCOORD_0": 26,
            "TEXCOORD_1": 27,
            "TEXCOORD_2": 28
          },
          "indices": 29,
          "material": 0,
          "mode": 4
        }
      ]
    },
    {
      "name": "Object_5",
      "primitives": [
        {
          "attributes": {
            "NORMAL": 31,
            "POSITION": 30,
            "TEXCOORD_0": 32,
            "TEXCOORD_1": 33,
            "TEXCOORD_2": 34
          },
          "indices": 35,
          "material": 0,
          "mode": 4
        }
      ]
    },
    {
      "name": "Object_6",
      "primitives": [
        {
          "attributes": {
            "NORMAL": 37,
            "POSITION": 36,
            "TEXCOORD_0": 38,
            "TEXCOORD_1": 39,
            "TEXCOORD_2": 40
          },
          "indices": 41,
          "material": 0,
          "mode": 4
        }
      ]
    },
    {
      "name": "Object_7",
      "primitives": [
        {
          "attributes": {
            "NORMAL": 43,
            "POSITION": 42,
            "TEXCOORD_0": 44,
            "TEXCOORD_1": 45,
            "TEXCOORD_2": 46
          },
          "indices": 47,
          "material": 0,
          "mode": 4
        }
      ]
    },
    {
      "name": "Object_8",
      "primitives": [
        {
          "attributes": {
            "NORMAL": 49,
            "POSITION": 48,
            "TEXCOORD_0": 50,
            "TEXCOORD_1": 51,
            "TEXCOORD_2": 52
          },
          "indices": 53,
          "material": 0,
          "mode": 4
        }
      ]
    },
    {
      "name": "Object_9",
      "primitives": [
        {
          "attributes": {
            "NORMAL": 55,
            "POSITION": 54,
            "TEXCOORD_0": 56,
            "TEXCOORD_1": 57,
            "TEXCOORD_2": 58
          },
          "indices": 59,
          "material": 0,
          "mode": 4
        }
      ]
    },
    {
      "name": "Object_10",
      "primitives": [
        {
          "attributes": {
            "NORMAL": 61,
            "POSITION": 60,
            "TEXCOORD_0": 62,
            "TEXCOORD_1": 63,
            "TEXCOORD_2": 64
          },
          "indices": 65,
          "material": 0,
          "mode": 4
        }
      ]
    },
    {
      "name": "Object_11",
      "primitives": [
        {
          "attributes": {
            "NORMAL": 67,
            "POSITION": 66,
            "TEXCOORD_0": 68,
            "TEXCOORD_1": 69,
            "TEXCOORD_2": 70
          },
          "indices": 71,
          "material": 0,
          "mode": 4
        }
      ]
    },
    {
      "name": "Object_12",
      "primitives": [
        {
          "attributes": {
            "NORMAL": 73,
            "POSITION": 72,
            "TEXCOORD_0": 74,
            "TEXCOORD_1": 75,
            "TEXCOORD_2": 76
          },
          "indices": 77,
          "material": 0,
          "mode": 4
        }
      ]
    },
    {
      "name": "Object_13",
      "primitives": [
        {
          "attributes": {
            "NORMAL": 79,
            "POSITION": 78,
            "TEXCOORD_0": 80,
            "TEXCOORD_1": 81,
            "TEXCOORD_2": 82
          },
          "indices": 83,
          "material": 0,
          "mode": 4
        }
      ]
    },
    {
      "name": "Object_14",
      "primitives": [
        {
          "attributes": {
            "NORMAL": 85,
            "POSITION": 84,
            "TEXCOORD_0": 86,
            "TEXCOORD_1": 87,
            "TEXCOORD_2": 88
          },
          "indices": 89,
          "material": 0,
          "mode": 4
        }
      ]
    },
    {
      "name": "Object_15",
      "primitives": [
        {
          "attributes": {
            "NORMAL": 91,
            "POSITION": 90,
            "TEXCOORD_0": 92,
            "TEXCOORD_1": 93,
            "TEXCOORD_2": 94
          },
          "indices": 95,
          "material": 0,
          "mode": 4
        }
      ]
    },
    {
      "name": "Object_16",
      "primitives": [
        {
          "attributes": {
            "NORMAL": 97,
            "POSITION": 96,
            "TEXCOORD_0": 98,
            "TEXCOORD_1": 99,
            "TEXCOORD_2": 100
          },
          "indices": 101,
          "material": 0,
          "mode": 4
        }
      ]
    },
    {
      "name": "Object_17",
      "primitives": [
        {
          "attributes": {
            "NORMAL": 103,
            "POSITION": 102,
            "TEXCOORD_0": 104,
            "TEXCOORD_1": 105,
            "TEXCOORD_2": 106
          },
          "indices": 107,
          "material": 0,
          "mode": 4
        }
      ]
    }
  ],
  "nodes": [
    {
      "children": [
        1
      ],
      "matrix": [
        1.0,
        0.0,
        0.0,
        0.0,
        0.0,
        2.220446049250313e-16,
        -1.0,
        0.0,
        0.0,
        1.0,
        2.220446049250313e-16,
        0.0,
        0.0,
        0.0,
        0.0,
        1.0
      ],
      "name": "Sketchfab_model"
    },
    {
      "children": [
        2
      ],
      "name": "root"
    },
    {
      "children": [
        3
      ],
      "matrix": [
        1.0,
        0.0,
        0.0,
        0.0,
        0.0,
        2.220446049250313e-16,
        1.0,
        0.0,
        0.0,
        -1.0,
        2.220446049250313e-16,
        0.0,
        0.0,
        0.0,
        0.0,
        1.0
      ],
      "name": "GLTF_SceneRootNode"
    },
    {
      "children": [
        4
      ],
      "matrix": [
        0.5013054013252258,
        0.0,
        0.0,
        0.0,
        0.0,
        0.5013054013252258,
        0.0,
        0.0,
        0.0,
        0.0,
        0.5013054013252258,
        0.0,
        -0.00048677719314582646,
        -0.07664809376001358,
        0.00035141274565830827,
        1.0
      ],
      "name": "_0"
    },
    {
      "children": [
        5
      ],
      "name": "world_1"
    },
    {
      "children": [
        6,
        7,
        8,
        9,
        10,
        11,
        12,
        13,
        14,
        15,
        16,
        17,
        18,
        19,
        20,
        21,
        22,
        23
      ],
      "name": "tmpral0jrm5obj_2"
    },
    {
      "mesh": 0,
      "name": "Object_6"
    },
    {
      "mesh": 1,
      "name": "Object_7"
    },
    {
      "mesh": 2,
      "name": "Object_8"
    },
    {
      "mesh": 3,
      "name": "Object_9"
    },
    {
      "mesh": 4,
      "name": "Object_10"
    },
    {
      "mesh": 5,
      "name": "Object_11"
    },
    {
      "mesh": 6,
      "name": "Object_12"
    },
    {
      "mesh": 7,
      "name": "Object_13"
    },
    {
      "mesh": 8,
      "name": "Object_14"
    },
    {
      "mesh": 9,
      "name": "Object_15"
    },
    {
      "mesh": 10,
      "name": "Object_16"
    },
    {
      "mesh": 11,
      "name": "Object_17"
    },
    {
      "mesh": 12,
      "name": "Object_18"
    },
    {
      "mesh": 13,
      "name": "Object_19"
    },
    {
      "mesh": 14,
      "name": "Object_20"
    },
    {
      "mesh": 15,
      "name": "Object_21"
    },
    {
      "mesh": 16,
      "name": "Object_22"
    },
    {
      "mesh": 17,
      "name": "Object_23"
    }
  ],
  "samplers": [
    {
      "magFilter": 9729,
      "minFilter": 9987,
      "wrapS": 10497,
      "wrapT": 10497
    }
  ],
  "scene": 0,
  "scenes": [
    {
      "name": "Sketchfab_Scene",
      "nodes": [
        0
      ]
    }
  ],
  "textures": [
    {
      "sampler": 0,
      "source": 0
    },
    {
      "sampler": 0,
      "source": 1
    }
  ]
}
