{
  "accessors": [
    {
      "bufferView": 1,
      "componentType": 5126,
      "count": 5764,
      "max": [
        1770.3968505859375,
        2582.032958984375,
        305.7239990234375
      ],
      "min": [
        727.3834228515625,
        1590.643310546875,
        -6.595719814300537
      ],
      "type": "VEC3"
    },
    {
      "bufferView": 1,
      "byteOffset": 69168,
      "componentType": 5126,
      "count": 5764,
      "max": [
        0.9999997019767761,
        1.0,
        1.0
      ],
      "min": [
        -0.9999988675117493,
        -1.0,
        -1.0
      ],
      "type": "VEC3"
    },
    {
      "bufferView": 0,
      "componentType": 5125,
      "count": 16164,
      "type": "SCALAR"
    },
    {
      "bufferView": 1,
      "byteOffset": 138336,
      "componentType": 5126,
      "count": 2454,
      "max": [
        1817.8802490234375,
        2686.52197265625,
        369.8919982910156
      ],
      "min": [
        982.5673828125,
        1489.029052734375,
        -4.9377288818359375
      ],
      "type": "VEC3"
    },
    {
      "bufferView": 1,
      "byteOffset": 167784,
      "componentType": 5126,
      "count": 2454,
      "max": [
        0.9999989867210388,
        1.0,
        1.0
      ],
      "min": [
        -0.999969482421875,
        -1.0,
        -1.0
      ],
      "type": "VEC3"
    },
    {
      "bufferView": 0,
      "byteOffset": 64656,
      "componentType": 5125,
      "count": 7140,
      "type": "SCALAR"
    },
    {
      "bufferView": 1,
      "byteOffset": 197232,
      "componentType": 5126,
      "count": 3954,
      "max": [
        1862.8765869140625,
        2482.9208984375,
        373.5185852050781
      ],
      "min": [
        734.556396484375,
        1693.19921875,
        -6.448790073394775
      ],
      "type": "VEC3"
    },
    {
      "bufferView": 0,
      "byteOffset": 93216,
      "componentType": 5125,
      "count": 19054,
      "type": "SCALAR"
    },
    {
      "bufferView": 1,
      "byteOffset": 244680,
      "componentType": 5126,
      "count": 11651,
      "max": [
        2047.586669921875,
        2482.9208984375,
        373.5185852050781
      ],
      "min": [
        727.3834228515625,
        1693.20068359375,
        -6.448790073394775
      ],
      "type": "VEC3"
    },
    {
      "bufferView": 1,
      "byteOffset": 384492,
      "componentType": 5126,
      "count": 11651,
      "max": [
        1.0,
        1.0,
        1.0
      ],
      "min": [
        -1.0,
        -1.0,
        -1.0
      ],
      "type": "VEC3"
    },
    {
      "bufferView": 0,
      "byteOffset": 169432,
      "componentType": 5125,
      "count": 32130,
      "type": "SCALAR"
    },
    {
      "bufferView": 1,
      "byteOffset": 524304,
      "componentType": 5126,
      "count": 40734,
      "max": [
        2085.077880859375,
        2684.2578125,
        366.1143798828125
      ],
      "min": [
        725.612548828125,
        1491.29296875,
        -6.595719814300537
      ],
      "type": "VEC3"
    },
    {
      "bufferView": 1,
      "byteOffset": 1013112,
      "componentType": 5126,
      "count": 40734,
      "max": [
        1.0,
        1.0,
        1.0
      ],
      "min": [
        -1.0,
        -1.0,
        -1.0
      ],
      "type": "VEC3"
    },
    {
      "bufferView": 0,
      "byteOffset": 297952,
      "componentType": 5125,
      "count": 115914,
      "type": "SCALAR"
    },
    {
      "bufferView": 1,
      "byteOffset": 1501920,
      "componentType": 5126,
      "count": 1058,
      "max": [
        1185.1192626953125,
        2507.6943359375,
        183.11297607421875
      ],
      "min": [
        982.7050170898438,
        1668.421630859375,
        3.944999933242798
      ],
      "type": "VEC3"
    },
    {
      "bufferView": 1,
      "byteOffset": 1514616,
      "componentType": 5126,
      "count": 1058,
      "max": [
        0.999970555305481,
        1.0,
        0.9609022736549377
      ],
      "min": [
        -0.9999741911888123,
        -1.0,
        -0.960422694683075
      ],
      "type": "VEC3"
    },
    {
      "bufferView": 0,
      "byteOffset": 761608,
      "componentType": 5125,
      "count": 2976,
      "type": "SCALAR"
    },
    {
      "bufferView": 1,
      "byteOffset": 1527312,
      "componentType": 5126,
      "count": 1216,
      "max": [
        1194.034423828125,
        2507.6943359375,
        183.11297607421875
      ],
      "min": [
        982.7050170898438,
        1668.421630859375,
        -5.323734760284424
      ],
      "type": "VEC3"
    },
    {
      "bufferView": 0,
      "byteOffset": 773512,
      "componentType": 5125,
      "count": 2428,
      "type": "SCALAR"
    },
    {
      "bufferView": 1,
      "byteOffset": 1541904,
      "componentType": 5126,
      "count": 12320,
      "max": [
        1194.336669921875,
        2581.06494140625,
        196.41236877441406
      ],
      "min": [
        725.612548828125,
        1591.611328125,
        5.062610149383545
      ],
      "type": "VEC3"
    },
    {
      "bufferView": 1,
      "byteOffset": 1689744,
      "componentType": 5126,
      "count": 12320,
      "max": [
        1.0,
        1.0,
        0.9999998211860657
      ],
      "min": [
        -1.0,
        -1.0,
        -1.0
      ],
      "type": "VEC3"
    },
    {
      "bufferView": 0,
      "byteOffset": 783224,
      "componentType": 5125,
      "count": 36372,
      "type": "SCALAR"
    },
    {
      "bufferView": 1,
      "byteOffset": 1837584,
      "componentType": 5126,
      "count": 1718,
      "max": [
        1770.3968505859375,
        2517.52490234375,
        296.7475891113281
      ],
      "min": [
        842.1940307617188,
        1658.58544921875,
        29.331817626953125
      ],
      "type": "VEC3"
    },
    {
      "bufferView": 1,
      "byteOffset": 1858200,
      "componentType": 5126,
      "count": 1718,
      "max": [
        0.9999513626098633,
        1.0,
        1.0
      ],
      "min": [
        -0.9999910593032837,
        -1.0,
        -0.9991919994354248
      ],
      "type": "VEC3"
    },
    {
      "bufferView": 0,
      "byteOffset": 928712,
      "componentType": 5125,
      "count": 5316,
      "type": "SCALAR"
    },
    {
      "bufferView": 1,
      "byteOffset": 1878816,
      "componentType": 5126,
      "count": 2845,
      "max": [
        1964.826904296875,
        2378.77197265625,
        287.7712097167969
      ],
      "min": [
        799.2462768554688,
        1796.7789306640625,
        29.24781036376953
      ],
      "type": "VEC3"
    },
    {
      "bufferView": 1,
      "byteOffset": 1912956,
      "componentType": 5126,
      "count": 2845,
      "max": [
        0.9998332262039185,
        1.0,
        1.0
      ],
      "min": [
        -1.0,
        -1.0,
        -1.0
      ],
      "type": "VEC3"
    },
    {
      "bufferView": 0,
      "byteOffset": 949976,
      "componentType": 5125,
      "count": 8061,
      "type": "SCALAR"
    },
    {
      "bufferView": 1,
      "byteOffset": 1947096,
      "componentType": 5126,
      "count": 10255,
      "max": [
        1848.352783203125,
        2670.070068359375,
        333.62664794921875
      ],
      "min": [
        753.5117797851563,
        1505.4805908203125,
        -1.4622920751571655
      ],
      "type": "VEC3"
    },
    {
      "bufferView": 1,
      "byteOffset": 2070156,
      "componentType": 5126,
      "count": 10255,
      "max": [
        1.0,
        1.0,
        1.0
      ],
      "min": [
        -0.9999994039535522,
        -1.0,
        -1.0
      ],
      "type": "VEC3"
    },
    {
      "bufferView": 0,
      "byteOffset": 982220,
      "componentType": 5125,
      "count": 27786,
      "type": "SCALAR"
    },
    {
      "bufferView": 1,
      "byteOffset": 2193216,
      "componentType": 5126,
      "count": 31959,
      "max": [
        2085.077880859375,
        2686.52197265625,
        369.8919982910156
      ],
      "min": [
        656.7459106445313,
        1489.029052734375,
        26.732280731201172
      ],
      "type": "VEC3"
    },
    {
      "bufferView": 1,
      "byteOffset": 2576724,
      "componentType": 5126,
      "count": 31959,
      "max": [
        1.0,
        1.0,
        1.0
      ],
      "min": [
        -1.0,
        -1.0,
        -1.0
      ],
      "type": "VEC3"
    },
    {
      "bufferView": 0,
      "byteOffset": 1093364,
      "componentType": 5125,
      "count": 116175,
      "type": "SCALAR"
    },
    {
      "bufferView": 1,
      "byteOffset": 2960232,
      "componentType": 5126,
      "count": 11064,
      "max": [
        2047.586669921875,
        2669.9189453125,
        336.3465881347656
      ],
      "min": [
        658.1690063476563,
        1505.6314697265625,
        28.092252731323242
      ],
      "type": "VEC3"
    },
    {
      "bufferView": 0,
      "byteOffset": 1558064,
      "componentType": 5125,
      "count": 42672,
      "type": "SCALAR"
    },
    {
      "bufferView": 1,
      "byteOffset": 3093000,
      "componentType": 5126,
      "count": 206,
      "max": [
        1844.440673828125,
        2684.2578125,
        365.5099792480469
      ],
      "min": [
        831.916259765625,
        1714.822998046875,
        64.35639190673828
      ],
      "type": "VEC3"
    },
    {
      "bufferView": 1,
      "byteOffset": 3095472,
      "componentType": 5126,
      "count": 206,
      "max": [
        0.9999989867210388,
        0.9997135996818542,
        0.9655739068984985
      ],
      "min": [
        -0.9999992847442627,
        -0.9997133016586304,
        -0.8040841221809387
      ],
      "type": "VEC3"
    },
    {
      "bufferView": 0,
      "byteOffset": 1728752,
      "componentType": 5125,
      "count": 435,
      "type": "SCALAR"
    },
    {
      "bufferView": 1,
      "byteOffset": 3097944,
      "componentType": 5126,
      "count": 7868,
      "max": [
        1238.306640625,
        2122.63818359375,
        155.83706665039063
      ],
      "min": [
        656.7459106445313,
        2003.2535400390625,
        26.732280731201172
      ],
      "type": "VEC3"
    },
    {
      "bufferView": 1,
      "byteOffset": 3192360,
      "componentType": 5126,
      "count": 7868,
      "max": [
        1.0,
        0.9999651312828064,
        1.0
      ],
      "min": [
        -1.0,
        -0.9999651312828064,
        -1.0
      ],
      "type": "VEC3"
    },
    {
      "bufferView": 0,
      "byteOffset": 1730492,
      "componentType": 5125,
      "count": 20136,
      "type": "SCALAR"
    },
    {
      "bufferView": 1,
      "byteOffset": 3286776,
      "componentType": 5126,
      "count": 4451,
      "max": [
        764.54931640625,
        2118.9833984375,
        143.7433624267578
      ],
      "min": [
        751.0572509765625,
        2055.9677734375,
        117.39311981201172
      ],
      "type": "VEC3"
    },
    {
      "bufferView": 1,
      "byteOffset": 3340188,
      "componentType": 5126,
      "count": 4451,
      "max": [
        1.0,
        0.9953659176826477,
        0.7082355618476868
      ],
      "min": [
        -1.0,
        -0.9861161112785339,
        -0.500573456287384
      ],
      "type": "VEC3"
    },
    {
      "bufferView": 0,
      "byteOffset": 1811036,
      "componentType": 5125,
      "count": 12330,
      "type": "SCALAR"
    },
    {
      "bufferView": 1,
      "byteOffset": 3393600,
      "componentType": 5126,
      "count": 1807,
      "max": [
        876.0617065429688,
        2149.956787109375,
        138.40000915527344
      ],
      "min": [
        755.0582885742188,
        2077.06396484375,
        79.59705352783203
      ],
      "type": "VEC3"
    },
    {
      "bufferView": 1,
      "byteOffset": 3415284,
      "componentType": 5126,
      "count": 1807,
      "max": [
        1.0,
        0.9669721722602844,
        0.48310816287994385
      ],
      "min": [
        -1.0,
        -0.9450291991233826,
        -0.5443392992019653
      ],
      "type": "VEC3"
    },
    {
      "bufferView": 0,
      "byteOffset": 1860356,
      "componentType": 5125,
      "count": 3369,
      "type": "SCALAR"
    },
    {
      "bufferView": 1,
      "byteOffset": 3436968,
      "componentType": 5126,
      "count": 264,
      "max": [
        761.8375244140625,
        2098.00537109375,
        136.3329620361328
      ],
      "min": [
        749.2481079101563,
        2076.92431640625,
        129.6700439453125
      ],
      "type": "VEC3"
    },
    {
      "bufferView": 1,
      "byteOffset": 3440136,
      "componentType": 5126,
      "count": 264,
      "max": [
        1.0,
        0.9444734454154968,
        0.06664485484361649
      ],
      "min": [
        -0.32859155535697937,
        -0.9891795516014099,
        -1.7479801783792936e-07
      ],
      "type": "VEC3"
    },
    {
      "bufferView": 0,
      "byteOffset": 1873832,
      "componentType": 5125,
      "count": 1035,
      "type": "SCALAR"
    },
    {
      "bufferView": 1,
      "byteOffset": 3443304,
      "componentType": 5126,
      "count": 368,
      "max": [
        787.4329223632813,
        2122.63818359375,
        155.83706665039063
      ],
      "min": [
        762.4887084960938,
        2051.364990234375,
        118.74059295654297
      ],
      "type": "VEC3"
    },
    {
      "bufferView": 0,
      "byteOffset": 1877972,
      "componentType": 5125,
      "count": 884,
      "type": "SCALAR"
    },
    {
      "bufferView": 1,
      "byteOffset": 3447720,
      "componentType": 5126,
      "count": 1074,
      "max": [
        787.4329223632813,
        2122.63818359375,
        155.83706665039063
      ],
      "min": [
        762.4887084960938,
        2051.364990234375,
        118.74059295654297
      ],
      "type": "VEC3"
    },
    {
      "bufferView": 1,
      "byteOffset": 3460608,
      "componentType": 5126,
      "count": 1074,
      "max": [
        0.9998968839645386,
        0.9999651312828064,
        0.9999431371688843
      ],
      "min": [
        -0.999898374080658,
        -0.9999651312828064,
        -0.9999555349349976
      ],
      "type": "VEC3"
    },
    {
      "bufferView": 0,
      "byteOffset": 1881508,
      "componentType": 5125,
      "count": 2706,
      "type": "SCALAR"
    },
    {
      "bufferView": 1,
      "byteOffset": 3473496,
      "componentType": 5126,
      "count": 183,
      "max": [
        1403.0770263671875,
        2684.258056640625,
        194.45852661132813
      ],
      "min": [
        1153.4603271484375,
        1491.29296875,
        47.58401870727539
      ],
      "type": "VEC3"
    },
    {
      "bufferView": 1,
      "byteOffset": 3475692,
      "componentType": 5126,
      "count": 183,
      "max": [
        0.9434506297111511,
        1.0,
        1.0
      ],
      "min": [
        -0.9735963940620422,
        -1.0,
        -1.0
      ],
      "type": "VEC3"
    },
    {
      "bufferView": 0,
      "byteOffset": 1892332,
      "componentType": 5125,
      "count": 474,
      "type": "SCALAR"
    },
    {
      "bufferView": 1,
      "byteOffset": 3477888,
      "componentType": 5126,
      "count": 264,
      "max": [
        812.201904296875,
        2098.801025390625,
        30.332721710205078
      ],
      "min": [
        786.7119140625,
        2076.74609375,
        4.572502136230469
      ],
      "type": "VEC3"
    },
    {
      "bufferView": 0,
      "byteOffset": 1894228,
      "componentType": 5125,
      "count": 558,
      "type": "SCALAR"
    },
    {
      "bufferView": 1,
      "byteOffset": 3481056,
      "componentType": 5126,
      "count": 479,
      "max": [
        1770.3968505859375,
        2135.80078125,
        305.7239990234375
      ],
      "min": [
        786.7119140625,
        2039.59228515625,
        3.778743267059326
      ],
      "type": "VEC3"
    },
    {
      "bufferView": 1,
      "byteOffset": 3486804,
      "componentType": 5126,
      "count": 479,
      "max": [
        0.9999992847442627,
        0.9998586773872375,
        0.998984158039093
      ],
      "min": [
        -0.9999989867210388,
        -0.9998589754104614,
        -0.998900294303894
      ],
      "type": "VEC3"
    },
    {
      "bufferView": 0,
      "byteOffset": 1896460,
      "componentType": 5125,
      "count": 1884,
      "type": "SCALAR"
    },
    {
      "bufferView": 1,
      "byteOffset": 3492552,
      "componentType": 5126,
      "count": 256,
      "max": [
        805.5136108398438,
        2098.801025390625,
        23.94997787475586
      ],
      "min": [
        793.379150390625,
        2076.74609375,
        10.954939842224121
      ],
      "type": "VEC3"
    },
    {
      "bufferView": 1,
      "byteOffset": 3495624,
      "componentType": 5126,
      "count": 256,
      "max": [
        0.9838110208511353,
        1.0,
        0.984613835811615
      ],
      "min": [
        -0.9850614070892334,
        -1.0,
        -0.9698059558868408
      ],
      "type": "VEC3"
    },
    {
      "bufferView": 0,
      "byteOffset": 1903996,
      "componentType": 5125,
      "count": 744,
      "type": "SCALAR"
    },
    {
      "bufferView": 1,
      "byteOffset": 3498696,
      "componentType": 5126,
      "count": 2231,
      "max": [
        1468.8360595703125,
        2154.15478515625,
        173.00189208984375
      ],
      "min": [
        729.1455688476563,
        2021.172607421875,
        46.33094787597656
      ],
      "type": "VEC3"
    },
    {
      "bufferView": 1,
      "byteOffset": 3525468,
      "componentType": 5126,
      "count": 2231,
      "max": [
        0.8343083262443542,
        0.9992622137069702,
        0.7868446707725525
      ],
      "min": [
        -0.9997997283935547,
        -0.9992622137069702,
        -0.7868446707725525
      ],
      "type": "VEC3"
    },
    {
      "bufferView": 0,
      "byteOffset": 1906972,
      "componentType": 5125,
      "count": 10728,
      "type": "SCALAR"
    },
    {
      "bufferView": 1,
      "byteOffset": 3552240,
      "componentType": 5126,
      "count": 26,
      "max": [
        1157.4764404296875,
        2684.258056640625,
        123.44503021240234
      ],
      "min": [
        1153.4603271484375,
        1491.29296875,
        121.61955261230469
      ],
      "type": "VEC3"
    },
    {
      "bufferView": 0,
      "byteOffset": 1949884,
      "componentType": 5125,
      "count": 92,
      "type": "SCALAR"
    },
    {
      "bufferView": 1,
      "byteOffset": 3552552,
      "componentType": 5126,
      "count": 753,
      "max": [
        1468.8360595703125,
        2154.15478515625,
        173.00189208984375
      ],
      "min": [
        729.1455688476563,
        2021.172607421875,
        122.99531555175781
      ],
      "type": "VEC3"
    },
    {
      "bufferView": 0,
      "byteOffset": 1950252,
      "componentType": 5125,
      "count": 4094,
      "type": "SCALAR"
    },
    {
      "bufferView": 1,
      "byteOffset": 3561588,
      "componentType": 5126,
      "count": 8,
      "max": [
        1380.7901611328125,
        2124.849609375,
        67.98405456542969
      ],
      "min": [
        1364.08203125,
        2053.212158203125,
        64.15412902832031
      ],
      "type": "VEC3"
    },
    {
      "bufferView": 0,
      "byteOffset": 1966628,
      "componentType": 5125,
      "count": 8,
      "type": "SCALAR"
    },
    {
      "bufferView": 1,
      "byteOffset": 3561684,
      "componentType": 5126,
      "count": 4307,
      "max": [
        1528.7652587890625,
        2373.791015625,
        92.46113586425781
      ],
      "min": [
        1213.06884765625,
        1801.759765625,
        55.90085220336914
      ],
      "type": "VEC3"
    },
    {
      "bufferView": 1,
      "byteOffset": 3613368,
      "componentType": 5126,
      "count": 4307,
      "max": [
        0.9963483214378357,
        0.9999979138374329,
        0.8798123002052307
      ],
      "min": [
        -0.8914228081703186,
        -0.9999979138374329,
        -0.47470229864120483
      ],
      "type": "VEC3"
    },
    {
      "bufferView": 0,
      "byteOffset": 1966660,
      "componentType": 5125,
      "count": 12672,
      "type": "SCALAR"
    },
    {
      "bufferView": 1,
      "byteOffset": 3665052,
      "componentType": 5126,
      "count": 5621,
      "max": [
        1528.7652587890625,
        2152.223388671875,
        160.46029663085938
      ],
      "min": [
        662.6931762695313,
        2023.3275146484375,
        55.90085220336914
      ],
      "type": "VEC3"
    },
    {
      "bufferView": 1,
      "byteOffset": 3732504,
      "componentType": 5126,
      "count": 5621,
      "max": [
        0.9999123215675354,
        0.9999999403953552,
        0.9999446272850037
      ],
      "min": [
        -0.9999123215675354,
        -0.9999999403953552,
        -0.9999446272850037
      ],
      "type": "VEC3"
    },
    {
      "bufferView": 0,
      "byteOffset": 2017348,
      "componentType": 5125,
      "count": 16341,
      "type": "SCALAR"
    },
    {
      "bufferView": 1,
      "byteOffset": 3799956,
      "componentType": 5126,
      "count": 4,
      "max": [
        698.0853881835938,
        2088.423828125,
        71.389404296875
      ],
      "min": [
        698.0682373046875,
        2087.480712890625,
        70.48242950439453
      ],
      "type": "VEC3"
    },
    {
      "bufferView": 0,
      "byteOffset": 2082712,
      "componentType": 5125,
      "count": 8,
      "type": "SCALAR"
    },
    {
      "bufferView": 1,
      "byteOffset": 3800004,
      "componentType": 5126,
      "count": 512,
      "max": [
        1428.444091796875,
        2014.8616943359375,
        113.7261734008789
      ],
      "min": [
        1403.4613037109375,
        1956.3427734375,
        29.24781036376953
      ],
      "type": "VEC3"
    },
    {
      "bufferView": 0,
      "byteOffset": 2082744,
      "componentType": 5125,
      "count": 2740,
      "type": "SCALAR"
    },
    {
      "bufferView": 1,
      "byteOffset": 3806148,
      "componentType": 5126,
      "count": 1276,
      "max": [
        1817.8802490234375,
        2686.52197265625,
        369.8919982910156
      ],
      "min": [
        982.5673828125,
        1489.029052734375,
        -4.9377288818359375
      ],
      "type": "VEC3"
    },
    {
      "bufferView": 0,
      "byteOffset": 2093704,
      "componentType": 5125,
      "count": 4276,
      "type": "SCALAR"
    },
    {
      "bufferView": 1,
      "byteOffset": 3821460,
      "componentType": 5126,
      "count": 6,
      "max": [
        793.1629028320313,
        2085.658935546875,
        160.92788696289063
      ],
      "min": [
        770.1537475585938,
        2046.8741455078125,
        40.52395248413086
      ],
      "type": "VEC3"
    },
    {
      "bufferView": 0,
      "byteOffset": 2110808,
      "componentType": 5125,
      "count": 8,
      "type": "SCALAR"
    },
    {
      "bufferView": 1,
      "byteOffset": 3821532,
      "componentType": 5126,
      "count": 14463,
      "max": [
        2085.077880859375,
        2684.2578125,
        373.5185852050781
      ],
      "min": [
        729.1455688476563,
        1491.29296875,
        -6.595719814300537
      ],
      "type": "VEC3"
    },
    {
      "bufferView": 0,
      "byteOffset": 2110840,
      "componentType": 5125,
      "count": 64018,
      "type": "SCALAR"
    },
    {
      "bufferView": 1,
      "byteOffset": 3995088,
      "componentType": 5126,
      "count": 5334,
      "max": [
        1194.336669921875,
        2520.986083984375,
        196.41236877441406
      ],
      "min": [
        725.612548828125,
        1655.115478515625,
        5.062610149383545
      ],
      "type": "VEC3"
    },
    {
      "bufferView": 0,
      "byteOffset": 2366912,
      "componentType": 5125,
      "count": 19280,
      "type": "SCALAR"
    },
    {
      "bufferView": 1,
      "byteOffset": 4059096,
      "componentType": 5126,
      "count": 296,
      "max": [
        1770.3968505859375,
        2090.53857421875,
        296.7475891113281
      ],
      "min": [
        1017.9317016601563,
        2082.07568359375,
        133.894287109375
      ],
      "type": "VEC3"
    },
    {
      "bufferView": 0,
      "byteOffset": 2444032,
      "componentType": 5125,
      "count": 584,
      "type": "SCALAR"
    },
    {
      "bufferView": 1,
      "byteOffset": 4062648,
      "componentType": 5126,
      "count": 7101,
      "max": [
        1964.826904296875,
        2582.032958984375,
        334.9866027832031
      ],
      "min": [
        662.7140502929688,
        1590.643310546875,
        7.202723503112793
      ],
      "type": "VEC3"
    },
    {
      "bufferView": 0,
      "byteOffset": 2446368,
      "componentType": 5125,
      "count": 17544,
      "type": "SCALAR"
    },
    {
      "bufferView": 1,
      "byteOffset": 4147860,
      "componentType": 5126,
      "count": 282,
      "max": [
        1844.440673828125,
        2378.77197265625,
        174.0606689453125
      ],
      "min": [
        1212.8494873046875,
        1796.7789306640625,
        55.82124328613281
      ],
      "type": "VEC3"
    },
    {
      "bufferView": 0,
      "byteOffset": 2516544,
      "componentType": 5125,
      "count": 1120,
      "type": "SCALAR"
    },
    {
      "bufferView": 1,
      "byteOffset": 4151244,
      "componentType": 5126,
      "count": 3953,
      "max": [
        1238.306640625,
        2621.62060546875,
        155.83706665039063
      ],
      "min": [
        656.7459106445313,
        2003.2535400390625,
        26.732280731201172
      ],
      "type": "VEC3"
    },
    {
      "bufferView": 0,
      "byteOffset": 2521024,
      "componentType": 5125,
      "count": 19602,
      "type": "SCALAR"
    }
  ],
  "asset": {
    "extras": {
      "author": "Ammar D. (https://sketchfab.com/ammardhamiri1)",
      "license": "CC-BY-4.0 (http://creativecommons.org/licenses/by/4.0/)",
      "source": "https://sketchfab.com/3d-models/lockheed-p-3c-2-orion-be11ab6c970741d78e62c9d8ff2e33e8",
      "title": "Lockheed P-3C 2 \"Orion\""
    },
    "generator": "Sketchfab-12.67.0",
    "version": "2.0"
  },
  "bufferViews": [
    {
      "buffer": 0,
      "byteLength": 2599432,
      "name": "floatBufferViews",
      "target": 34963
    },
    {
      "buffer": 0,
      "byteLength": 4198680,
      "byteOffset": 2599432,
      "byteStride": 12,
      "name": "floatBufferViews",
      "target": 34962
    }
  ],
  "buffers": [
    {
      "byteLength": 6798112,
      "uri": "scene.bin"
    }
  ],
  "materials": [
    {
      "name": "Color_009",
      "pbrMetallicRoughness": {
        "baseColorFactor": [
          0.0,
          0.0,
          0.0,
          1.0
        ],
        "metallicFactor": 0.0,
        "roughnessFactor": 0.6
      }
    },
    {
      "alphaMode": "BLEND",
      "name": "edge_color114114114255",
      "pbrMetallicRoughness": {
        "baseColorFactor": [
          1.0,
          1.0,
          1.0,
          0.0
        ],
        "metallicFactor": 0.0,
        "roughnessFactor": 0.6
      }
    },
    {
      "alphaMode": "BLEND",
      "name": "edge_color505050255",
      "pbrMetallicRoughness": {
        "baseColorFactor": [
          1.0,
          1.0,
          1.0,
          0.0
        ],
        "metallicFactor": 0.0,
        "roughnessFactor": 0.6
      }
    },
    {
      "name": "Color_005",
      "pbrMetallicRoughness": {
        "baseColorFactor": [
          0.447059,
          0.447059,
          0.447059,
          1.0
        ],
        "metallicFactor": 0.0,
        "roughnessFactor": 0.6
      }
    },
    {
      "alphaMode": "BLEND",
      "name": "edge_color585858255",
      "pbrMetallicRoughness": {
        "baseColorFactor": [
          1.0,
          1.0,
          1.0,
          0.0
        ],
        "metallicFactor": 0.0,
        "roughnessFactor": 0.6
      }
    },
    {
      "name": "Color_007",
      "pbrMetallicRoughness": {
        "baseColorFactor": [
          0.227451,
          0.227451,
          0.227451,
          1.0
        ],
        "metallicFactor": 0.0,
        "roughnessFactor": 0.6
      }
    },
    {
      "name": "Color_A06",
      "pbrMetallicRoughness": {
        "baseColorFactor": [
          0.196078,
          0.196078,
          0.196078,
          1.0
        ],
        "metallicFactor": 0.0,
        "roughnessFactor": 0.6
      }
    },
    {
      "alphaMode": "BLEND",
      "name": "edge_color255255255255",
      "pbrMetallicRoughness": {
        "baseColorFactor": [
          1.0,
          1.0,
          1.0,
          0.0
        ],
        "metallicFactor": 0.0,
        "roughnessFactor": 0.6
      }
    },
    {
      "name": "Color_003",
      "pbrMetallicRoughness": {
        "baseColorFactor": [
          0.666667,
          0.666667,
          0.666667,
          1.0
        ],
        "metallicFactor": 0.0,
        "roughnessFactor": 0.6
      }
    },
    {
      "alphaMode": "BLEND",
      "name": "edge_color170170170255",
      "pbrMetallicRoughness": {
        "baseColorFactor": [
          1.0,
          1.0,
          1.0,
          0.0
        ],
        "metallicFactor": 0.0,
        "roughnessFactor": 0.6
      }
    },
    {
      "name": "Color_000",
      "pbrMetallicRoughness": {
        "metallicFactor": 0.0,
        "roughnessFactor": 0.6
      }
    },
    {
      "name": "Color_A06_1",
      "pbrMetallicRoughness": {
        "baseColorFactor": [
          0.8,
          0.0,
          0.0,
          1.0
        ],
        "metallicFactor": 0.0,
        "roughnessFactor": 0.6
      }
    },
    {
      "alphaMode": "BLEND",
      "name": "edge_color000255",
      "pbrMetallicRoughness": {
        "baseColorFactor": [
          1.0,
          1.0,
          1.0,
          0.0
        ],
        "metallicFactor": 0.0,
        "roughnessFactor": 0.6
      }
    },
    {
      "name": "Color_D01",
      "pbrMetallicRoughness": {
        "baseColorFactor": [
          1.0,
          0.74902,
          0.0,
          1.0
        ],
        "metallicFactor": 0.0,
        "roughnessFactor": 0.6
      }
    },
    {
      "name": "material",
      "pbrMetallicRoughness": {
        "baseColorFactor": [
          0.870588,
          0.870588,
          0.870588,
          1.0
        ],
        "metallicFactor": 0.0,
        "roughnessFactor": 0.6
      }
    },
    {
      "name": "BODY1",
      "pbrMetallicRoughness": {
        "baseColorFactor": [
          0.737255,
          0.737255,
          0.870588,
          1.0
        ],
        "metallicFactor": 0.0,
        "roughnessFactor": 0.6
      }
    },
    {
      "alphaMode": "BLEND",
      "name": "edge_color188188222255",
      "pbrMetallicRoughness": {
        "baseColorFactor": [
          1.0,
          1.0,
          1.0,
          0.0
        ],
        "metallicFactor": 0.0,
        "roughnessFactor": 0.6
      }
    },
    {
      "name": "material_17",
      "pbrMetallicRoughness": {
        "baseColorFactor": [
          0.694118,
          0.717647,
          0.745098,
          1.0
        ],
        "metallicFactor": 0.0,
        "roughnessFactor": 0.6
      }
    },
    {
      "alphaMode": "BLEND",
      "name": "edge_color222222222255",
      "pbrMetallicRoughness": {
        "baseColorFactor": [
          1.0,
          1.0,
          1.0,
          0.0
        ],
        "metallicFactor": 0.0,
        "roughnessFactor": 0.6
      }
    },
    {
      "alphaMode": "BLEND",
      "name": "edge_color100100100255",
      "pbrMetallicRoughness": {
        "baseColorFactor": [
          1.0,
          1.0,
          1.0,
          0.0
        ],
        "metallicFactor": 0.0,
        "roughnessFactor": 0.6
      }
    },
    {
      "name": "material_20",
      "pbrMetallicRoughness": {
        "baseColorFactor": [
          0.392157,
          0.392157,
          0.392157,
          1.0
        ],
        "metallicFactor": 0.0,
        "roughnessFactor": 0.6
      }
    },
    {
      "name": "BODY2",
      "pbrMetallicRoughness": {
        "baseColorFactor": [
          0.784314,
          0.784314,
          0.784314,
          1.0
        ],
        "metallicFactor": 0.0,
        "roughnessFactor": 0.6
      }
    },
    {
      "name": "material_22",
      "pbrMetallicRoughness": {
        "baseColorFactor": [
          0.286274,
          0.286274,
          0.286274,
          1.0
        ],
        "metallicFactor": 0.0,
        "roughnessFactor": 0.6
      }
    },
    {
      "name": "material_23",
      "pbrMetallicRoughness": {
        "baseColorFactor": [
          0.168628,
          0.168628,
          0.168628,
          1.0
        ],
        "metallicFactor": 0.0,
        "roughnessFactor": 0.6
      }
    },
    {
      "alphaMode": "BLEND",
      "name": "edge_color153380255",
      "pbrMetallicRoughness": {
        "baseColorFactor": [
          1.0,
          1.0,
          1.0,
          0.0
        ],
        "metallicFactor": 0.0,
        "roughnessFactor": 0.6
      }
    },
    {
      "name": "Color_B11",
      "pbrMetallicRoughness": {
        "baseColorFactor": [
          0.6,
          0.14902,
          0.0,
          1.0
        ],
        "metallicFactor": 0.0,
        "roughnessFactor": 0.6
      }
    },
    {
      "alphaMode": "BLEND",
      "name": "Translucent_Glass_Green_Dark",
      "pbrMetallicRoughness": {
        "baseColorFactor": [
          0.776471,
          0.0,
          0.0,
          0.501961
        ],
        "metallicFactor": 0.0,
        "roughnessFactor": 0.6
      }
    },
    {
      "alphaMode": "BLEND",
      "name": "edge_color969696255",
      "pbrMetallicRoughness": {
        "baseColorFactor": [
          1.0,
          1.0,
          1.0,
          0.0
        ],
        "metallicFactor": 0.0,
        "roughnessFactor": 0.6
      }
    },
    {
      "name": "black",
      "pbrMetallicRoughness": {
        "baseColorFactor": [
          0.0,
          0.0,
          0.0,
          1.0
        ],
        "metallicFactor": 0.0,
        "roughnessFactor": 0.6
      }
    },
    {
      "name": "96_96_96",
      "pbrMetallicRoughness": {
        "baseColorFactor": [
          0.376471,
          0.376471,
          0.376471,
          1.0
        ],
        "metallicFactor": 0.0,
        "roughnessFactor": 0.6
      }
    },
    {
      "alphaMode": "BLEND",
      "name": "Translucent_Glass_Gray",
      "pbrMetallicRoughness": {
        "baseColorFactor": [
          0.3518395048990995,
          0.3518395048990995,
          0.3518395048990995,
          0.15371437778547933
        ],
        "metallicFactor": 0.0,
        "roughnessFactor": 0.6
      }
    },
    {
      "name": "edge_color19800255",
      "pbrMetallicRoughness": {
        "metallicFactor": 0.0,
        "roughnessFactor": 0.6
      }
    },
    {
      "alphaMode": "BLEND",
      "name": "edge_color128128128255",
      "pbrMetallicRoughness": {
        "baseColorFactor": [
          1.0,
          1.0,
          1.0,
          0.0
        ],
        "metallicFactor": 0.0,
        "roughnessFactor": 0.6
      }
    },
    {
      "name": "edge_color20400255",
      "pbrMetallicRoughness": {
        "metallicFactor": 0.0,
        "roughnessFactor": 0.6
      }
    },
    {
      "name": "material_0",
      "pbrMetallicRoughness": {
        "metallicFactor": 0.0,
        "roughnessFactor": 0.6
      }
    },
    {
      "name": "material_35",
      "pbrMetallicRoughness": {
        "baseColorFactor": [
          0.34902,
          0.34902,
          0.34902,
          1.0
        ],
        "metallicFactor": 0.0,
        "roughnessFactor": 0.6
      }
    },
    {
      "name": "edge_color898989255",
      "pbrMetallicRoughness": {
        "metallicFactor": 0.0,
        "roughnessFactor": 0.6
      }
    },
    {
      "name": "edge_color2551910255",
      "pbrMetallicRoughness": {
        "metallicFactor": 0.0,
        "roughnessFactor": 0.6
      }
    }
  ],
  "meshes": [
    {
      "name": "Material3",
      "primitives": [
        {
          "attributes": {
            "NORMAL": 1,
            "POSITION": 0
          },
          "indices": 2,
          "material": 0,
          "mode": 4
        }
      ]
    },
    {
      "name": "Material2",
      "primitives": [
        {
          "attributes": {
            "NORMAL": 4,
            "POSITION": 3
          },
          "indices": 5,
          "material": 3,
          "mode": 4
        }
      ]
    },
    {
      "name": "Material4",
      "primitives": [
        {
          "attributes": {
            "POSITION": 6
          },
          "indices": 7,
          "material": 4,
          "mode": 1
        }
      ]
    },
    {
      "name": "Material2",
      "primitives": [
        {
          "attributes": {
            "NORMAL": 9,
            "POSITION": 8
          },
          "indices": 10,
          "material": 5,
          "mode": 4
        }
      ]
    },
    {
      "name": "Material2",
      "primitives": [
        {
          "attributes": {
            "NORMAL": 12,
            "POSITION": 11
          },
          "indices": 13,
          "material": 6,
          "mode": 4
        }
      ]
    },
    {
      "name": "Material3",
      "primitives": [
        {
          "attributes": {
            "NORMAL": 15,
            "POSITION": 14
          },
          "indices": 16,
          "material": 8,
          "mode": 4
        }
      ]
    },
    {
      "name": "Material6",
      "primitives": [
        {
          "attributes": {
            "POSITION": 17
          },
          "indices": 18,
          "material": 9,
          "mode": 1
        }
      ]
    },
    {
      "name": "Material3",
      "primitives": [
        {
          "attributes": {
            "NORMAL": 20,
            "POSITION": 19
          },
          "indices": 21,
          "material": 10,
          "mode": 4
        }
      ]
    },
    {
      "name": "Material3",
      "primitives": [
        {
          "attributes": {
            "NORMAL": 23,
            "POSITION": 22
          },
          "indices": 24,
          "material": 11,
          "mode": 4
        }
      ]
    },
    {
      "name": "Material3",
      "primitives": [
        {
          "attributes": {
            "NORMAL": 26,
            "POSITION": 25
          },
          "indices": 27,
          "material": 13,
          "mode": 4
        }
      ]
    },
    {
      "name": "Material2",
      "primitives": [
        {
          "attributes": {
            "NORMAL": 29,
            "POSITION": 28
          },
          "indices": 30,
          "material": 14,
          "mode": 4
        }
      ]
    },
    {
      "name": "Material3",
      "primitives": [
        {
          "attributes": {
            "NORMAL": 32,
            "POSITION": 31
          },
          "indices": 33,
          "material": 15,
          "mode": 4
        }
      ]
    },
    {
      "name": "Material4",
      "primitives": [
        {
          "attributes": {
            "POSITION": 34
          },
          "indices": 35,
          "material": 16,
          "mode": 1
        }
      ]
    },
    {
      "name": "Material3",
      "primitives": [
        {
          "attributes": {
            "NORMAL": 37,
            "POSITION": 36
          },
          "indices": 38,
          "material": 17,
          "mode": 4
        }
      ]
    },
    {
      "name": "Material2",
      "primitives": [
        {
          "attributes": {
            "NORMAL": 40,
            "POSITION": 39
          },
          "indices": 41,
          "material": 20,
          "mode": 4
        }
      ]
    },
    {
      "name": "Material3",
      "primitives": [
        {
          "attributes": {
            "NORMAL": 43,
            "POSITION": 42
          },
          "indices": 44,
          "material": 21,
          "mode": 4
        }
      ]
    },
    {
      "name": "Material3",
      "primitives": [
        {
          "attributes": {
            "NORMAL": 46,
            "POSITION": 45
          },
          "indices": 47,
          "material": 22,
          "mode": 4
        }
      ]
    },
    {
      "name": "Material3",
      "primitives": [
        {
          "attributes": {
            "NORMAL": 49,
            "POSITION": 48
          },
          "indices": 50,
          "material": 23,
          "mode": 4
        }
      ]
    },
    {
      "name": "Material5",
      "primitives": [
        {
          "attributes": {
            "POSITION": 51
          },
          "indices": 52,
          "material": 24,
          "mode": 1
        }
      ]
    },
    {
      "name": "Material3",
      "primitives": [
        {
          "attributes": {
            "NORMAL": 54,
            "POSITION": 53
          },
          "indices": 55,
          "material": 25,
          "mode": 4
        }
      ]
    },
    {
      "name": "Material2",
      "primitives": [
        {
          "attributes": {
            "NORMAL": 57,
            "POSITION": 56
          },
          "indices": 58,
          "material": 26,
          "mode": 4
        }
      ]
    },
    {
      "name": "Material5",
      "primitives": [
        {
          "attributes": {
            "POSITION": 59
          },
          "indices": 60,
          "material": 27,
          "mode": 1
        }
      ]
    },
    {
      "name": "Material3",
      "primitives": [
        {
          "attributes": {
            "NORMAL": 62,
            "POSITION": 61
          },
          "indices": 63,
          "material": 28,
          "mode": 4
        }
      ]
    },
    {
      "name": "Material3",
      "primitives": [
        {
          "attributes": {
            "NORMAL": 65,
            "POSITION": 64
          },
          "indices": 66,
          "material": 29,
          "mode": 4
        }
      ]
    },
    {
      "name": "Material2",
      "primitives": [
        {
          "attributes": {
            "NORMAL": 68,
            "POSITION": 67
          },
          "indices": 69,
          "material": 30,
          "mode": 4
        }
      ]
    },
    {
      "name": "Material3",
      "primitives": [
        {
          "attributes": {
            "POSITION": 70
          },
          "indices": 71,
          "material": 31,
          "mode": 1
        }
      ]
    },
    {
      "name": "Material3",
      "primitives": [
        {
          "attributes": {
            "POSITION": 72
          },
          "indices": 73,
          "material": 32,
          "mode": 1
        }
      ]
    },
    {
      "name": "Material6",
      "primitives": [
        {
          "attributes": {
            "POSITION": 74
          },
          "indices": 75,
          "material": 33,
          "mode": 1
        }
      ]
    },
    {
      "name": "Material2",
      "primitives": [
        {
          "attributes": {
            "NORMAL": 77,
            "POSITION": 76
          },
          "indices": 78,
          "material": 34,
          "mode": 4
        }
      ]
    },
    {
      "name": "Material3",
      "primitives": [
        {
          "attributes": {
            "NORMAL": 80,
            "POSITION": 79
          },
          "indices": 81,
          "material": 35,
          "mode": 4
        }
      ]
    },
    {
      "name": "Material6",
      "primitives": [
        {
          "attributes": {
            "POSITION": 82
          },
          "indices": 83,
          "material": 36,
          "mode": 1
        }
      ]
    },
    {
      "name": "Material4",
      "primitives": [
        {
          "attributes": {
            "POSITION": 84
          },
          "indices": 85,
          "material": 37,
          "mode": 1
        }
      ]
    },
    {
      "name": "Material2",
      "primitives": [
        {
          "attributes": {
            "POSITION": 86
          },
          "indices": 87,
          "material": 1,
          "mode": 1
        }
      ]
    },
    {
      "name": "Material2",
      "primitives": [
        {
          "attributes": {
            "POSITION": 88
          },
          "indices": 89,
          "material": 2,
          "mode": 1
        }
      ]
    },
    {
      "name": "Material4",
      "primitives": [
        {
          "attributes": {
            "POSITION": 90
          },
          "indices": 91,
          "material": 2,
          "mode": 1
        }
      ]
    },
    {
      "name": "Material2",
      "primitives": [
        {
          "attributes": {
            "POSITION": 92
          },
          "indices": 93,
          "material": 7,
          "mode": 1
        }
      ]
    },
    {
      "name": "Material2",
      "primitives": [
        {
          "attributes": {
            "POSITION": 94
          },
          "indices": 95,
          "material": 12,
          "mode": 1
        }
      ]
    },
    {
      "name": "Material4",
      "primitives": [
        {
          "attributes": {
            "POSITION": 96
          },
          "indices": 97,
          "material": 12,
          "mode": 1
        }
      ]
    },
    {
      "name": "Material2",
      "primitives": [
        {
          "attributes": {
            "POSITION": 98
          },
          "indices": 99,
          "material": 18,
          "mode": 1
        }
      ]
    },
    {
      "name": "Material2",
      "primitives": [
        {
          "attributes": {
            "POSITION": 100
          },
          "indices": 101,
          "material": 19,
          "mode": 1
        }
      ]
    }
  ],
  "nodes": [
    {
      "children": [
        1
      ],
      "matrix": [
        1.0,
        0.0,
        0.0,
        0.0,
        0.0,
        2.220446049250313e-16,
        -1.0,
        0.0,
        0.0,
        1.0,
        2.220446049250313e-16,
        0.0,
        0.0,
        0.0,
        0.0,
        1.0
      ],
      "name": "Sketchfab_model"
    },
    {
      "children": [
        2,
        3,
        4,
        5,
        6,
        7,
        8,
        9,
        10,
        11,
        12,
        13,
        14,
        15,
        16,
        17,
        18,
        19,
        20,
        21,
        22,
        23,
        24,
        25,
        26,
        27,
        28,
        29,
        30,
        31,
        32,
        33,
        34,
        35,
        36,
        37,
        38,
        39,
        40,
        41,
        42
      ],
      "name": "Collada visual scene group"
    },
    {
      "mesh": 0,
      "name": "Material3"
    },
    {
      "mesh": 1,
      "name": "Material2"
    },
    {
      "mesh": 2,
      "name": "Material4"
    },
    {
      "mesh": 3,
      "name": "Material2"
    },
    {
      "mesh": 4,
      "name": "Material2"
    },
    {
      "mesh": 5,
      "name": "Material3"
    },
    {
      "mesh": 6,
      "name": "Material6"
    },
    {
      "mesh": 7,
      "name": "Material3"
    },
    {
      "mesh": 8,
      "name": "Material3"
    },
    {
      "mesh": 9,
      "name": "Material3"
    },
    {
      "mesh": 10,
      "name": "Material2"
    },
    {
      "mesh": 11,
      "name": "Material3"
    },
    {
      "mesh": 12,
      "name": "Material4"
    },
    {
      "mesh": 13,
      "name": "Material3"
    },
    {
      "mesh": 14,
      "name": "Material2"
    },
    {
      "mesh": 15,
      "name": "Material3"
    },
    {
      "mesh": 16,
      "name": "Material3"
    },
    {
      "mesh": 17,
      "name": "Material3"
    },
    {
      "mesh": 18,
      "name": "Material5"
    },
    {
      "mesh": 19,
      "name": "Material3"
    },
    {
      "mesh": 20,
      "name": "Material2"
    },
    {
      "mesh": 21,
      "name": "Material5"
    },
    {
      "mesh": 22,
      "name": "Material3"
    },
    {
      "mesh": 23,
      "name": "Material3"
    },
    {
      "mesh": 24,
      "name": "Material2"
    },
    {
      "mesh": 25,
      "name": "Material3"
    },
    {
      "mesh": 26,
      "name": "Material3"
    },
    {
      "mesh": 27,
      "name": "Material6"
    },
    {
      "mesh": 28,
      "name": "Material2"
    },
    {
      "mesh": 29,
      "name": "Material3"
    },
    {
      "mesh": 30,
      "name": "Material6"
    },
    {
      "mesh": 31,
      "name": "Material4"
    },
    {
      "mesh": 32,
      "name": "Material2"
    },
    {
      "mesh": 33,
      "name": "Material2"
    },
    {
      "mesh": 34,
      "name": "Material4"
    },
    {
      "mesh": 35,
      "name": "Material2"
    },
    {
      "mesh": 36,
      "name": "Material2"
    },
    {
      "mesh": 37,
      "name": "Material4"
    },
    {
      "mesh": 38,
      "name": "Material2"
    },
    {
      "mesh": 39,
      "name": "Material2"
    },
    {
      "children": [
        43,
        45,
        47,
        49,
        51,
        53,
        55,
        57,
        59,
        61,
        63,
        65,
        67,
        69
      ],
      "name": "SketchUp"
    },
    {
      "children": [
        44
      ],
      "matrix": [
        0.8013685,
        -0.5981711,
        -3.330669e-16,
        0.0,
        0.2311314,
        0.3096462,
        0.9223326,
        0.0,
        -0.5517127,
        -0.7391283,
        0.3863968,
        0.0,
        566.8367,
        1211.319,
        507.3294,
        1.0
      ],
      "name": "skp_camera_Last_Saved_SketchUp_View"
    },
    {
      "name": "ID1"
    },
    {
      "children": [
        46
      ],
      "matrix": [
        0.8013685,
        -0.5981711,
        -3.330669e-16,
        0.0,
        0.2311314,
        0.3096462,
        0.9223326,
        0.0,
        -0.5517127,
        -0.7391283,
        0.3863968,
        0.0,
        566.8367,
        1211.319,
        507.3294,
        1.0
      ],
      "name": "skp_camera_Szene_1"
    },
    {
      "name": "ID2"
    },
    {
      "children": [
        48
      ],
      "matrix": [
        0.5903807,
        -0.8071249,
        5.551115e-17,
        0.0,
        0.3011386,
        0.2202713,
        0.927791,
        0.0,
        -0.7488432,
        -0.5477499,
        0.3731004,
        0.0,
        518.6626,
        1702.671,
        349.2267,
        1.0
      ],
      "name": "skp_camera_Szene_2"
    },
    {
      "name": "ID3"
    },
    {
      "children": [
        50
      ],
      "matrix": [
        0.9572862,
        0.2891419,
        -2.220446e-16,
        0.0,
        -0.1619743,
        0.5362616,
        0.8283646,
        0.0,
        0.2395149,
        -0.792982,
        0.5601894,
        0.0,
        812.0555,
        1978.583,
        205.4328,
        1.0
      ],
      "name": "skp_camera_Szene_3"
    },
    {
      "name": "ID4"
    },
    {
      "children": [
        52
      ],
      "matrix": [
        0.999572,
        -0.02925487,
        0.0,
        0.0,
        0.01297912,
        0.4434669,
        0.8961967,
        0.0,
        -0.02621812,
        -0.8958132,
        0.4436568,
        0.0,
        772.7354,
        2014.373,
        166.4736,
        1.0
      ],
      "name": "skp_camera_Szene_4"
    },
    {
      "name": "ID5"
    },
    {
      "children": [
        54
      ],
      "matrix": [
        0.6384004,
        -0.7697045,
        0.0,
        0.0,
        0.202939,
        0.1683196,
        0.9646161,
        0.0,
        -0.7424694,
        -0.6158113,
        0.2636583,
        0.0,
        782.5969,
        1555.07,
        199.3549,
        1.0
      ],
      "name": "skp_camera_Szene_5"
    },
    {
      "name": "ID6"
    },
    {
      "children": [
        56
      ],
      "matrix": [
        0.9564296,
        0.291963,
        -1.387779e-17,
        0.0,
        0.1321468,
        -0.4328943,
        0.891706,
        0.0,
        0.2603452,
        -0.8528541,
        -0.4526149,
        0.0,
        1300.11,
        1620.423,
        -104.3635,
        1.0
      ],
      "name": "skp_camera_Szene_6"
    },
    {
      "name": "ID7"
    },
    {
      "children": [
        58
      ],
      "matrix": [
        0.7247883,
        0.6889716,
        4.163336e-17,
        0.0,
        -0.162819,
        0.1712832,
        0.9716749,
        0.0,
        0.6694564,
        -0.7042586,
        0.2363217,
        0.0,
        1632.818,
        1796.28,
        136.6713,
        1.0
      ],
      "name": "skp_camera_Szene_7"
    },
    {
      "name": "ID8"
    },
    {
      "children": [
        60
      ],
      "matrix": [
        0.9036913,
        0.4281846,
        -6.938894e-18,
        0.0,
        -0.04258623,
        0.089879,
        0.9950418,
        0.0,
        0.4260616,
        -0.8992106,
        0.09945764,
        0.0,
        1754.642,
        1694.6,
        145.4078,
        1.0
      ],
      "name": "skp_camera_Szene_8"
    },
    {
      "name": "ID9"
    },
    {
      "children": [
        62
      ],
      "matrix": [
        -0.5914108,
        0.8063704,
        5.421011e-20,
        0.0,
        -0.0005030671,
        -0.0003689611,
        0.9999998,
        0.0,
        0.8063703,
        0.5914107,
        0.000623866,
        0.0,
        1978.46,
        2320.687,
        295.2351,
        1.0
      ],
      "name": "skp_camera_Szene_9"
    },
    {
      "name": "ID10"
    },
    {
      "children": [
        64
      ],
      "matrix": [
        -0.4158228,
        0.9094456,
        0.0,
        0.0,
        0.7254304,
        0.3316861,
        0.6031045,
        0.0,
        0.5484908,
        0.2507846,
        -0.7976621,
        0.0,
        1678.521,
        2182.812,
        -253.8146,
        1.0
      ],
      "name": "skp_camera_Szene_10"
    },
    {
      "name": "ID11"
    },
    {
      "children": [
        66
      ],
      "matrix": [
        -0.7029409,
        -0.7112482,
        3.469447e-18,
        0.0,
        0.01244819,
        -0.0123028,
        0.9998468,
        0.0,
        -0.7111393,
        0.7028332,
        0.01750189,
        0.0,
        420.6198,
        2886.182,
        192.6415,
        1.0
      ],
      "name": "skp_camera_Szene_11"
    },
    {
      "name": "ID12"
    },
    {
      "children": [
        68
      ],
      "matrix": [
        0.04268951,
        -0.9990884,
        -2.602085e-18,
        0.0,
        -0.1342532,
        -0.005736433,
        0.9909304,
        0.0,
        -0.9900271,
        -0.04230234,
        -0.1343757,
        0.0,
        355.9398,
        2090.484,
        56.18687,
        1.0
      ],
      "name": "skp_camera_Szene_12"
    },
    {
      "name": "ID13"
    },
    {
      "children": [
        70
      ],
      "matrix": [
        -0.569766,
        -0.821807,
        5.551115e-17,
        0.0,
        -0.1742117,
        0.1207825,
        0.9772727,
        0.0,
        -0.8031296,
        0.5568167,
        -0.2119861,
        0.0,
        567.6466,
        2323.496,
        -52.65048,
        1.0
      ],
      "name": "skp_camera_Szene_13"
    },
    {
      "name": "ID14"
    }
  ],
  "scene": 0,
  "scenes": [
    {
      "name": "Sketchfab_Scene",
      "nodes": [
        0
      ]
    }
  ]
}
